<svg width="404" height="328" viewBox="0 0 404 328" fill="none" xmlns="http://www.w3.org/2000/svg">
<g clip-path="url(#clip0_53310_27665)">
<rect width="404" height="328" rx="12" fill="#FFFBFE"/>
<rect width="404" height="328" rx="12" fill="#6750A4" fill-opacity="0.05"/>
</g>
<g filter="url(#filter0_dd_53310_27665)">
<rect x="29" y="23" width="341" height="73" rx="12" fill="#FFFBFE"/>
<rect x="29" y="23" width="341" height="73" rx="12" fill="#6750A4" fill-opacity="0.08"/>
</g>
<g clip-path="url(#clip1_53310_27665)">
<path fill-rule="evenodd" clip-rule="evenodd" d="M239 57C237.9 57 237 57.9 237 59C237 60.1 237.9 61 239 61C240.1 61 241 60.1 241 59C241 57.9 240.1 57 239 57ZM251 57C249.9 57 249 57.9 249 59C249 60.1 249.9 61 251 61C252.1 61 253 60.1 253 59C253 57.9 252.1 57 251 57ZM243 59C243 57.9 243.9 57 245 57C246.1 57 247 57.9 247 59C247 60.1 246.1 61 245 61C243.9 61 243 60.1 243 59Z" fill="#CAC4D0"/>
</g>
<g filter="url(#filter1_dd_53310_27665)">
<rect x="41" y="33" width="90" height="52" rx="12" fill="#FFFBFE"/>
<rect x="41" y="33" width="90" height="52" rx="12" fill="#6750A4" fill-opacity="0.05"/>
<path d="M75.4713 54.0127V64H73.8238V55.9678L71.3834 56.7949V55.4346L75.273 54.0127H75.4713ZM80.7734 58.1074V64H79.126V56.6035H80.6777L80.7734 58.1074ZM80.5068 60.0283L79.9463 60.0215C79.9463 59.5111 80.0101 59.0394 80.1377 58.6064C80.2653 58.1735 80.4521 57.7975 80.6982 57.4785C80.9443 57.1549 81.2497 56.9066 81.6143 56.7334C81.9834 56.5557 82.4095 56.4668 82.8926 56.4668C83.2298 56.4668 83.5374 56.5169 83.8154 56.6172C84.098 56.7129 84.3418 56.8656 84.5469 57.0752C84.7565 57.2848 84.916 57.5537 85.0254 57.8818C85.1393 58.21 85.1963 58.6064 85.1963 59.0713V64H83.5488V59.2148C83.5488 58.8548 83.4941 58.5723 83.3848 58.3672C83.2799 58.1621 83.1273 58.0163 82.9268 57.9297C82.7308 57.8385 82.4961 57.793 82.2227 57.793C81.9128 57.793 81.6484 57.8522 81.4297 57.9707C81.2155 58.0892 81.04 58.251 80.9033 58.4561C80.7666 58.6611 80.6663 58.8981 80.6025 59.167C80.5387 59.4359 80.5068 59.723 80.5068 60.0283ZM85.0938 59.5908L84.3213 59.7617C84.3213 59.3151 84.3828 58.8936 84.5059 58.4971C84.6335 58.096 84.818 57.7451 85.0596 57.4443C85.3057 57.139 85.6087 56.8997 85.9688 56.7266C86.3288 56.5534 86.7412 56.4668 87.2061 56.4668C87.5843 56.4668 87.9215 56.5192 88.2178 56.624C88.5186 56.7243 88.7738 56.8838 88.9834 57.1025C89.193 57.3213 89.3525 57.6061 89.4619 57.957C89.5713 58.3034 89.626 58.7227 89.626 59.2148V64H87.9717V59.208C87.9717 58.8343 87.917 58.5449 87.8076 58.3398C87.7028 58.1348 87.5524 57.9935 87.3564 57.916C87.1605 57.834 86.9258 57.793 86.6523 57.793C86.3971 57.793 86.1715 57.8408 85.9756 57.9365C85.7842 58.0277 85.6224 58.1576 85.4902 58.3262C85.3581 58.4902 85.2578 58.6794 85.1895 58.8936C85.1257 59.1077 85.0938 59.3402 85.0938 59.5908ZM95.5707 61.9971C95.5707 61.833 95.5297 61.6849 95.4477 61.5527C95.3656 61.416 95.2084 61.293 94.976 61.1836C94.7481 61.0742 94.4109 60.974 93.9643 60.8828C93.5723 60.7962 93.2123 60.6937 92.8842 60.5752C92.5606 60.4521 92.2826 60.304 92.0502 60.1309C91.8178 59.9577 91.6378 59.7526 91.5102 59.5156C91.3826 59.2786 91.3188 59.0052 91.3188 58.6953C91.3188 58.3945 91.3848 58.1097 91.517 57.8408C91.6492 57.5719 91.8383 57.335 92.0844 57.1299C92.3305 56.9248 92.629 56.763 92.9799 56.6445C93.3354 56.526 93.7318 56.4668 94.1693 56.4668C94.7891 56.4668 95.3201 56.5716 95.7621 56.7812C96.2087 56.9863 96.5505 57.2666 96.7875 57.6221C97.0245 57.973 97.143 58.3695 97.143 58.8115H95.4955C95.4955 58.6156 95.4454 58.4333 95.3451 58.2646C95.2494 58.0915 95.1036 57.9525 94.9076 57.8477C94.7117 57.7383 94.4656 57.6836 94.1693 57.6836C93.8868 57.6836 93.6521 57.7292 93.4652 57.8203C93.2829 57.9069 93.1462 58.0208 93.0551 58.1621C92.9685 58.3034 92.9252 58.4583 92.9252 58.627C92.9252 58.75 92.948 58.8617 92.9936 58.9619C93.0437 59.0576 93.1257 59.1465 93.2396 59.2285C93.3536 59.306 93.5085 59.3789 93.7045 59.4473C93.905 59.5156 94.1557 59.5817 94.4564 59.6455C95.0215 59.764 95.5069 59.9167 95.9125 60.1035C96.3227 60.2858 96.6371 60.5228 96.8559 60.8145C97.0746 61.1016 97.184 61.4661 97.184 61.9082C97.184 62.2363 97.1133 62.5371 96.9721 62.8105C96.8354 63.0794 96.6348 63.3141 96.3705 63.5146C96.1062 63.7106 95.7895 63.8633 95.4203 63.9727C95.0557 64.082 94.6456 64.1367 94.1898 64.1367C93.5199 64.1367 92.9525 64.0182 92.4877 63.7812C92.0229 63.5397 91.6697 63.2321 91.4281 62.8584C91.1911 62.4801 91.0727 62.0882 91.0727 61.6826H92.6654C92.6837 61.988 92.768 62.2318 92.9184 62.4141C93.0733 62.5918 93.2647 62.7217 93.4926 62.8037C93.725 62.8812 93.9643 62.9199 94.2104 62.9199C94.5066 62.9199 94.7549 62.8812 94.9555 62.8037C95.156 62.7217 95.3087 62.6123 95.4135 62.4756C95.5183 62.3343 95.5707 62.1748 95.5707 61.9971Z" fill="#6750A4"/>
</g>
<g filter="url(#filter2_dd_53310_27665)">
<rect x="131" y="33" width="90" height="52" rx="12" fill="#FFFBFE"/>
<rect x="131" y="33" width="90" height="52" rx="12" fill="#6750A4" fill-opacity="0.05"/>
<path d="M167.645 62.6875V64H160.973V62.8721L164.213 59.3379C164.569 58.9368 164.849 58.5905 165.054 58.2988C165.259 58.0072 165.403 57.7451 165.485 57.5127C165.572 57.2757 165.615 57.0456 165.615 56.8223C165.615 56.5078 165.556 56.2321 165.437 55.9951C165.323 55.7536 165.155 55.5645 164.931 55.4277C164.708 55.2865 164.437 55.2158 164.118 55.2158C163.749 55.2158 163.439 55.2956 163.188 55.4551C162.937 55.6146 162.748 55.8356 162.621 56.1182C162.493 56.3962 162.429 56.7152 162.429 57.0752H160.782C160.782 56.4964 160.914 55.9678 161.178 55.4893C161.443 55.0062 161.825 54.6234 162.327 54.3408C162.828 54.0537 163.432 53.9102 164.138 53.9102C164.804 53.9102 165.369 54.0218 165.834 54.2451C166.298 54.4684 166.652 54.7852 166.893 55.1953C167.139 55.6055 167.262 56.0908 167.262 56.6514C167.262 56.9613 167.212 57.2689 167.112 57.5742C167.012 57.8796 166.868 58.1849 166.681 58.4902C166.499 58.791 166.282 59.0941 166.032 59.3994C165.781 59.7002 165.505 60.0055 165.205 60.3154L163.051 62.6875H167.645ZM170.773 58.1074V64H169.126V56.6035H170.678L170.773 58.1074ZM170.507 60.0283L169.946 60.0215C169.946 59.5111 170.01 59.0394 170.138 58.6064C170.265 58.1735 170.452 57.7975 170.698 57.4785C170.944 57.1549 171.25 56.9066 171.614 56.7334C171.983 56.5557 172.41 56.4668 172.893 56.4668C173.23 56.4668 173.537 56.5169 173.815 56.6172C174.098 56.7129 174.342 56.8656 174.547 57.0752C174.757 57.2848 174.916 57.5537 175.025 57.8818C175.139 58.21 175.196 58.6064 175.196 59.0713V64H173.549V59.2148C173.549 58.8548 173.494 58.5723 173.385 58.3672C173.28 58.1621 173.127 58.0163 172.927 57.9297C172.731 57.8385 172.496 57.793 172.223 57.793C171.913 57.793 171.648 57.8522 171.43 57.9707C171.215 58.0892 171.04 58.251 170.903 58.4561C170.767 58.6611 170.666 58.8981 170.603 59.167C170.539 59.4359 170.507 59.723 170.507 60.0283ZM175.094 59.5908L174.321 59.7617C174.321 59.3151 174.383 58.8936 174.506 58.4971C174.633 58.096 174.818 57.7451 175.06 57.4443C175.306 57.139 175.609 56.8997 175.969 56.7266C176.329 56.5534 176.741 56.4668 177.206 56.4668C177.584 56.4668 177.922 56.5192 178.218 56.624C178.519 56.7243 178.774 56.8838 178.983 57.1025C179.193 57.3213 179.353 57.6061 179.462 57.957C179.571 58.3034 179.626 58.7227 179.626 59.2148V64H177.972V59.208C177.972 58.8343 177.917 58.5449 177.808 58.3398C177.703 58.1348 177.552 57.9935 177.356 57.916C177.16 57.834 176.926 57.793 176.652 57.793C176.397 57.793 176.172 57.8408 175.976 57.9365C175.784 58.0277 175.622 58.1576 175.49 58.3262C175.358 58.4902 175.258 58.6794 175.189 58.8936C175.126 59.1077 175.094 59.3402 175.094 59.5908ZM185.571 61.9971C185.571 61.833 185.53 61.6849 185.448 61.5527C185.366 61.416 185.208 61.293 184.976 61.1836C184.748 61.0742 184.411 60.974 183.964 60.8828C183.572 60.7962 183.212 60.6937 182.884 60.5752C182.561 60.4521 182.283 60.304 182.05 60.1309C181.818 59.9577 181.638 59.7526 181.51 59.5156C181.383 59.2786 181.319 59.0052 181.319 58.6953C181.319 58.3945 181.385 58.1097 181.517 57.8408C181.649 57.5719 181.838 57.335 182.084 57.1299C182.33 56.9248 182.629 56.763 182.98 56.6445C183.335 56.526 183.732 56.4668 184.169 56.4668C184.789 56.4668 185.32 56.5716 185.762 56.7812C186.209 56.9863 186.551 57.2666 186.788 57.6221C187.024 57.973 187.143 58.3695 187.143 58.8115H185.496C185.496 58.6156 185.445 58.4333 185.345 58.2646C185.249 58.0915 185.104 57.9525 184.908 57.8477C184.712 57.7383 184.466 57.6836 184.169 57.6836C183.887 57.6836 183.652 57.7292 183.465 57.8203C183.283 57.9069 183.146 58.0208 183.055 58.1621C182.968 58.3034 182.925 58.4583 182.925 58.627C182.925 58.75 182.948 58.8617 182.994 58.9619C183.044 59.0576 183.126 59.1465 183.24 59.2285C183.354 59.306 183.509 59.3789 183.704 59.4473C183.905 59.5156 184.156 59.5817 184.456 59.6455C185.022 59.764 185.507 59.9167 185.913 60.1035C186.323 60.2858 186.637 60.5228 186.856 60.8145C187.075 61.1016 187.184 61.4661 187.184 61.9082C187.184 62.2363 187.113 62.5371 186.972 62.8105C186.835 63.0794 186.635 63.3141 186.371 63.5146C186.106 63.7106 185.789 63.8633 185.42 63.9727C185.056 64.082 184.646 64.1367 184.19 64.1367C183.52 64.1367 182.953 64.0182 182.488 63.7812C182.023 63.5397 181.67 63.2321 181.428 62.8584C181.191 62.4801 181.073 62.0882 181.073 61.6826H182.665C182.684 61.988 182.768 62.2318 182.918 62.4141C183.073 62.5918 183.265 62.7217 183.493 62.8037C183.725 62.8812 183.964 62.9199 184.21 62.9199C184.507 62.9199 184.755 62.8812 184.955 62.8037C185.156 62.7217 185.309 62.6123 185.413 62.4756C185.518 62.3343 185.571 62.1748 185.571 61.9971Z" fill="#6750A4"/>
</g>
<g filter="url(#filter3_dd_53310_27665)">
<rect x="269" y="32" width="90" height="52" rx="12" fill="#FFFBFE"/>
<rect x="269" y="32" width="90" height="52" rx="12" fill="#6750A4" fill-opacity="0.05"/>
<path d="M297.588 61.6875V63H290.916V61.8721L294.156 58.3379C294.512 57.9368 294.792 57.5905 294.997 57.2988C295.202 57.0072 295.346 56.7451 295.428 56.5127C295.515 56.2757 295.558 56.0456 295.558 55.8223C295.558 55.5078 295.499 55.2321 295.38 54.9951C295.266 54.7536 295.098 54.5645 294.874 54.4277C294.651 54.2865 294.38 54.2158 294.061 54.2158C293.692 54.2158 293.382 54.2956 293.131 54.4551C292.88 54.6146 292.691 54.8356 292.564 55.1182C292.436 55.3962 292.372 55.7152 292.372 56.0752H290.725C290.725 55.4964 290.857 54.9678 291.121 54.4893C291.386 54.0062 291.768 53.6234 292.27 53.3408C292.771 53.0537 293.375 52.9102 294.081 52.9102C294.747 52.9102 295.312 53.0218 295.777 53.2451C296.241 53.4684 296.595 53.7852 296.836 54.1953C297.082 54.6055 297.205 55.0908 297.205 55.6514C297.205 55.9613 297.155 56.2689 297.055 56.5742C296.955 56.8796 296.811 57.1849 296.624 57.4902C296.442 57.791 296.225 58.0941 295.975 58.3994C295.724 58.7002 295.448 59.0055 295.148 59.3154L292.994 61.6875H297.588ZM300.703 58.3721L299.39 58.0508L299.93 53.0469H305.296V54.4414H301.297L301.024 56.8818C301.179 56.7907 301.393 56.7018 301.667 56.6152C301.94 56.5241 302.252 56.4785 302.603 56.4785C303.073 56.4785 303.492 56.556 303.861 56.7109C304.235 56.8613 304.551 57.0824 304.811 57.374C305.071 57.6611 305.269 58.012 305.406 58.4268C305.543 58.8369 305.611 59.2995 305.611 59.8145C305.611 60.2747 305.543 60.7054 305.406 61.1064C305.274 61.5075 305.073 61.8607 304.804 62.166C304.535 62.4714 304.196 62.7106 303.786 62.8838C303.38 63.0524 302.899 63.1367 302.343 63.1367C301.929 63.1367 301.53 63.0775 301.147 62.959C300.769 62.8359 300.429 62.6559 300.129 62.4189C299.828 62.1774 299.586 61.8812 299.404 61.5303C299.222 61.1748 299.117 60.7669 299.089 60.3066H300.703C300.744 60.6302 300.833 60.9059 300.969 61.1338C301.111 61.3571 301.297 61.528 301.53 61.6465C301.762 61.765 302.031 61.8242 302.337 61.8242C302.615 61.8242 302.854 61.7764 303.054 61.6807C303.255 61.5804 303.421 61.4391 303.553 61.2568C303.69 61.07 303.79 60.8512 303.854 60.6006C303.922 60.3499 303.957 60.0719 303.957 59.7666C303.957 59.4749 303.918 59.2083 303.84 58.9668C303.768 58.7253 303.656 58.5156 303.505 58.3379C303.36 58.1602 303.175 58.0234 302.952 57.9277C302.728 57.8275 302.471 57.7773 302.179 57.7773C301.787 57.7773 301.487 57.8343 301.277 57.9482C301.072 58.0622 300.88 58.2035 300.703 58.3721ZM312.007 52.9854H312.212V54.332H312.096C311.508 54.332 311 54.4232 310.571 54.6055C310.147 54.7878 309.799 55.0384 309.525 55.3574C309.252 55.6764 309.047 56.0501 308.91 56.4785C308.778 56.9023 308.712 57.3535 308.712 57.832V59.3975C308.712 59.7939 308.755 60.1449 308.842 60.4502C308.928 60.751 309.049 61.0039 309.204 61.209C309.364 61.4095 309.546 61.5622 309.751 61.667C309.956 61.7718 310.177 61.8242 310.414 61.8242C310.66 61.8242 310.883 61.7741 311.084 61.6738C311.285 61.569 311.455 61.4255 311.597 61.2432C311.738 61.0609 311.845 60.8444 311.918 60.5938C311.991 60.3431 312.027 60.0697 312.027 59.7734C312.027 59.4909 311.991 59.2266 311.918 58.9805C311.85 58.7298 311.747 58.5111 311.61 58.3242C311.474 58.1328 311.303 57.9847 311.098 57.8799C310.897 57.7705 310.665 57.7158 310.4 57.7158C310.072 57.7158 309.774 57.7933 309.505 57.9482C309.241 58.1032 309.026 58.306 308.862 58.5566C308.703 58.8027 308.616 59.0648 308.603 59.3428L307.974 59.1377C308.01 58.7139 308.104 58.3333 308.254 57.9961C308.409 57.6589 308.612 57.3717 308.862 57.1348C309.113 56.8978 309.402 56.7178 309.73 56.5947C310.063 56.4671 310.428 56.4033 310.824 56.4033C311.307 56.4033 311.727 56.4945 312.082 56.6768C312.438 56.859 312.731 57.1074 312.964 57.4219C313.201 57.7318 313.376 58.0872 313.49 58.4883C313.609 58.8848 313.668 59.2995 313.668 59.7324C313.668 60.2109 313.595 60.6576 313.449 61.0723C313.303 61.4824 313.089 61.8424 312.807 62.1523C312.529 62.4622 312.189 62.7038 311.788 62.877C311.392 63.0501 310.94 63.1367 310.435 63.1367C309.901 63.1367 309.425 63.0342 309.006 62.8291C308.591 62.624 308.238 62.3415 307.946 61.9814C307.659 61.6214 307.44 61.2067 307.29 60.7373C307.14 60.2679 307.064 59.7712 307.064 59.2471V58.5635C307.064 57.807 307.16 57.0938 307.352 56.4238C307.543 55.7493 307.837 55.1546 308.233 54.6396C308.634 54.1247 309.147 53.7214 309.771 53.4297C310.396 53.1335 311.141 52.9854 312.007 52.9854ZM316.83 57.1074V63H315.183V55.6035H316.735L316.83 57.1074ZM316.564 59.0283L316.003 59.0215C316.003 58.5111 316.067 58.0394 316.195 57.6064C316.322 57.1735 316.509 56.7975 316.755 56.4785C317.001 56.1549 317.307 55.9066 317.671 55.7334C318.04 55.5557 318.467 55.4668 318.95 55.4668C319.287 55.4668 319.594 55.5169 319.872 55.6172C320.155 55.7129 320.399 55.8656 320.604 56.0752C320.814 56.2848 320.973 56.5537 321.082 56.8818C321.196 57.21 321.253 57.6064 321.253 58.0713V63H319.606V58.2148C319.606 57.8548 319.551 57.5723 319.442 57.3672C319.337 57.1621 319.184 57.0163 318.984 56.9297C318.788 56.8385 318.553 56.793 318.28 56.793C317.97 56.793 317.705 56.8522 317.487 56.9707C317.273 57.0892 317.097 57.251 316.96 57.4561C316.824 57.6611 316.723 57.8981 316.66 58.167C316.596 58.4359 316.564 58.723 316.564 59.0283ZM321.151 58.5908L320.378 58.7617C320.378 58.3151 320.44 57.8936 320.563 57.4971C320.69 57.096 320.875 56.7451 321.117 56.4443C321.363 56.139 321.666 55.8997 322.026 55.7266C322.386 55.5534 322.798 55.4668 323.263 55.4668C323.641 55.4668 323.979 55.5192 324.275 55.624C324.576 55.7243 324.831 55.8838 325.04 56.1025C325.25 56.3213 325.41 56.6061 325.519 56.957C325.628 57.3034 325.683 57.7227 325.683 58.2148V63H324.029V58.208C324.029 57.8343 323.974 57.5449 323.865 57.3398C323.76 57.1348 323.609 56.9935 323.413 56.916C323.218 56.834 322.983 56.793 322.709 56.793C322.454 56.793 322.229 56.8408 322.033 56.9365C321.841 57.0277 321.679 57.1576 321.547 57.3262C321.415 57.4902 321.315 57.6794 321.246 57.8936C321.183 58.1077 321.151 58.3402 321.151 58.5908ZM331.628 60.9971C331.628 60.833 331.587 60.6849 331.505 60.5527C331.423 60.416 331.265 60.293 331.033 60.1836C330.805 60.0742 330.468 59.974 330.021 59.8828C329.629 59.7962 329.269 59.6937 328.941 59.5752C328.618 59.4521 328.34 59.304 328.107 59.1309C327.875 58.9577 327.695 58.7526 327.567 58.5156C327.44 58.2786 327.376 58.0052 327.376 57.6953C327.376 57.3945 327.442 57.1097 327.574 56.8408C327.706 56.5719 327.895 56.335 328.141 56.1299C328.388 55.9248 328.686 55.763 329.037 55.6445C329.392 55.526 329.789 55.4668 330.226 55.4668C330.846 55.4668 331.377 55.5716 331.819 55.7812C332.266 55.9863 332.608 56.2666 332.845 56.6221C333.082 56.973 333.2 57.3695 333.2 57.8115H331.553C331.553 57.6156 331.502 57.4333 331.402 57.2646C331.306 57.0915 331.161 56.9525 330.965 56.8477C330.769 56.7383 330.523 56.6836 330.226 56.6836C329.944 56.6836 329.709 56.7292 329.522 56.8203C329.34 56.9069 329.203 57.0208 329.112 57.1621C329.026 57.3034 328.982 57.4583 328.982 57.627C328.982 57.75 329.005 57.8617 329.051 57.9619C329.101 58.0576 329.183 58.1465 329.297 58.2285C329.411 58.306 329.566 58.3789 329.762 58.4473C329.962 58.5156 330.213 58.5817 330.513 58.6455C331.079 58.764 331.564 58.9167 331.97 59.1035C332.38 59.2858 332.694 59.5228 332.913 59.8145C333.132 60.1016 333.241 60.4661 333.241 60.9082C333.241 61.2363 333.17 61.5371 333.029 61.8105C332.892 62.0794 332.692 62.3141 332.428 62.5146C332.163 62.7106 331.846 62.8633 331.477 62.9727C331.113 63.082 330.703 63.1367 330.247 63.1367C329.577 63.1367 329.01 63.0182 328.545 62.7812C328.08 62.5397 327.727 62.2321 327.485 61.8584C327.248 61.4801 327.13 61.0882 327.13 60.6826H328.722C328.741 60.988 328.825 61.2318 328.975 61.4141C329.13 61.5918 329.322 61.7217 329.55 61.8037C329.782 61.8812 330.021 61.9199 330.267 61.9199C330.564 61.9199 330.812 61.8812 331.013 61.8037C331.213 61.7217 331.366 61.6123 331.471 61.4756C331.575 61.3343 331.628 61.1748 331.628 60.9971Z" fill="#6750A4"/>
</g>
<g filter="url(#filter4_dd_53310_27665)">
<rect x="29" y="107" width="341" height="73" rx="12" fill="#FFFBFE"/>
<rect x="29" y="107" width="341" height="73" rx="12" fill="#6750A4" fill-opacity="0.08"/>
</g>
<g clip-path="url(#clip2_53310_27665)">
<path fill-rule="evenodd" clip-rule="evenodd" d="M239 141C237.9 141 237 141.9 237 143C237 144.1 237.9 145 239 145C240.1 145 241 144.1 241 143C241 141.9 240.1 141 239 141ZM251 141C249.9 141 249 141.9 249 143C249 144.1 249.9 145 251 145C252.1 145 253 144.1 253 143C253 141.9 252.1 141 251 141ZM243 143C243 141.9 243.9 141 245 141C246.1 141 247 141.9 247 143C247 144.1 246.1 145 245 145C243.9 145 243 144.1 243 143Z" fill="#CAC4D0"/>
</g>
<g clip-path="url(#clip3_53310_27665)">
<path fill-rule="evenodd" clip-rule="evenodd" d="M245 202C246.1 202 247 201.1 247 200C247 198.9 246.1 198 245 198C243.9 198 243 198.9 243 200C243 201.1 243.9 202 245 202ZM245 204C243.9 204 243 204.9 243 206C243 207.1 243.9 208 245 208C246.1 208 247 207.1 247 206C247 204.9 246.1 204 245 204ZM243 212C243 210.9 243.9 210 245 210C246.1 210 247 210.9 247 212C247 213.1 246.1 214 245 214C243.9 214 243 213.1 243 212Z" fill="#CAC4D0"/>
</g>
<g filter="url(#filter5_dd_53310_27665)">
<rect x="41" y="117" width="90" height="52" rx="12" fill="#FFFBFE"/>
<rect x="41" y="117" width="90" height="52" rx="12" fill="#6750A4" fill-opacity="0.05"/>
<path d="M69.5881 146.688V148H62.9162V146.872L66.1564 143.338C66.5119 142.937 66.7922 142.59 66.9973 142.299C67.2023 142.007 67.3459 141.745 67.4279 141.513C67.5145 141.276 67.5578 141.046 67.5578 140.822C67.5578 140.508 67.4986 140.232 67.3801 139.995C67.2661 139.754 67.0975 139.564 66.8742 139.428C66.6509 139.286 66.3798 139.216 66.0607 139.216C65.6916 139.216 65.3817 139.296 65.1311 139.455C64.8804 139.615 64.6913 139.836 64.5637 140.118C64.4361 140.396 64.3723 140.715 64.3723 141.075H62.7248C62.7248 140.496 62.857 139.968 63.1213 139.489C63.3856 139.006 63.7684 138.623 64.2697 138.341C64.771 138.054 65.3749 137.91 66.0812 137.91C66.7466 137.91 67.3117 138.022 67.7766 138.245C68.2414 138.468 68.5946 138.785 68.8361 139.195C69.0822 139.605 69.2053 140.091 69.2053 140.651C69.2053 140.961 69.1551 141.269 69.0549 141.574C68.9546 141.88 68.8111 142.185 68.6242 142.49C68.4419 142.791 68.2255 143.094 67.9748 143.399C67.7242 143.7 67.4484 144.006 67.1477 144.315L64.9943 146.688H69.5881ZM72.7027 143.372L71.3902 143.051L71.9303 138.047H77.2965V139.441H73.2975L73.024 141.882C73.179 141.791 73.3932 141.702 73.6666 141.615C73.94 141.524 74.2522 141.479 74.6031 141.479C75.0725 141.479 75.4918 141.556 75.8609 141.711C76.2346 141.861 76.5514 142.082 76.8111 142.374C77.0709 142.661 77.2691 143.012 77.4059 143.427C77.5426 143.837 77.6109 144.299 77.6109 144.814C77.6109 145.275 77.5426 145.705 77.4059 146.106C77.2737 146.507 77.0732 146.861 76.8043 147.166C76.5354 147.471 76.1959 147.711 75.7857 147.884C75.3801 148.052 74.8993 148.137 74.3434 148.137C73.9286 148.137 73.5299 148.077 73.1471 147.959C72.7688 147.836 72.4293 147.656 72.1285 147.419C71.8277 147.177 71.5862 146.881 71.4039 146.53C71.2216 146.175 71.1168 145.767 71.0895 145.307H72.7027C72.7437 145.63 72.8326 145.906 72.9693 146.134C73.1106 146.357 73.2975 146.528 73.5299 146.646C73.7623 146.765 74.0312 146.824 74.3365 146.824C74.6145 146.824 74.8538 146.776 75.0543 146.681C75.2548 146.58 75.4212 146.439 75.5533 146.257C75.69 146.07 75.7903 145.851 75.8541 145.601C75.9225 145.35 75.9566 145.072 75.9566 144.767C75.9566 144.475 75.9179 144.208 75.8404 143.967C75.7675 143.725 75.6559 143.516 75.5055 143.338C75.3596 143.16 75.1751 143.023 74.9518 142.928C74.7285 142.827 74.471 142.777 74.1793 142.777C73.7874 142.777 73.4866 142.834 73.277 142.948C73.0719 143.062 72.8805 143.203 72.7027 143.372ZM85.6406 138.047V138.949L81.6621 148H79.9258L83.8975 139.359H78.7432V138.047H85.6406ZM88.8305 142.107V148H87.183V140.604H88.7348L88.8305 142.107ZM88.5639 144.028L88.0033 144.021C88.0033 143.511 88.0671 143.039 88.1947 142.606C88.3223 142.174 88.5092 141.798 88.7553 141.479C89.0014 141.155 89.3067 140.907 89.6713 140.733C90.0404 140.556 90.4665 140.467 90.9496 140.467C91.2868 140.467 91.5945 140.517 91.8725 140.617C92.155 140.713 92.3988 140.866 92.6039 141.075C92.8135 141.285 92.973 141.554 93.0824 141.882C93.1964 142.21 93.2533 142.606 93.2533 143.071V148H91.6059V143.215C91.6059 142.855 91.5512 142.572 91.4418 142.367C91.337 142.162 91.1843 142.016 90.9838 141.93C90.7878 141.839 90.5531 141.793 90.2797 141.793C89.9698 141.793 89.7055 141.852 89.4867 141.971C89.2725 142.089 89.0971 142.251 88.9604 142.456C88.8236 142.661 88.7234 142.898 88.6596 143.167C88.5958 143.436 88.5639 143.723 88.5639 144.028ZM93.1508 143.591L92.3783 143.762C92.3783 143.315 92.4398 142.894 92.5629 142.497C92.6905 142.096 92.8751 141.745 93.1166 141.444C93.3627 141.139 93.6658 140.9 94.0258 140.727C94.3858 140.553 94.7982 140.467 95.2631 140.467C95.6413 140.467 95.9786 140.519 96.2748 140.624C96.5756 140.724 96.8308 140.884 97.0404 141.103C97.2501 141.321 97.4096 141.606 97.5189 141.957C97.6283 142.303 97.683 142.723 97.683 143.215V148H96.0287V143.208C96.0287 142.834 95.974 142.545 95.8646 142.34C95.7598 142.135 95.6094 141.993 95.4135 141.916C95.2175 141.834 94.9828 141.793 94.7094 141.793C94.4542 141.793 94.2286 141.841 94.0326 141.937C93.8412 142.028 93.6794 142.158 93.5473 142.326C93.4151 142.49 93.3148 142.679 93.2465 142.894C93.1827 143.108 93.1508 143.34 93.1508 143.591ZM103.628 145.997C103.628 145.833 103.587 145.685 103.505 145.553C103.423 145.416 103.265 145.293 103.033 145.184C102.805 145.074 102.468 144.974 102.021 144.883C101.629 144.796 101.269 144.694 100.941 144.575C100.618 144.452 100.34 144.304 100.107 144.131C99.8748 143.958 99.6948 143.753 99.5672 143.516C99.4396 143.279 99.3758 143.005 99.3758 142.695C99.3758 142.395 99.4419 142.11 99.574 141.841C99.7062 141.572 99.8953 141.335 100.141 141.13C100.388 140.925 100.686 140.763 101.037 140.645C101.392 140.526 101.789 140.467 102.226 140.467C102.846 140.467 103.377 140.572 103.819 140.781C104.266 140.986 104.608 141.267 104.845 141.622C105.082 141.973 105.2 142.369 105.2 142.812H103.553C103.553 142.616 103.502 142.433 103.402 142.265C103.306 142.091 103.161 141.952 102.965 141.848C102.769 141.738 102.523 141.684 102.226 141.684C101.944 141.684 101.709 141.729 101.522 141.82C101.34 141.907 101.203 142.021 101.112 142.162C101.026 142.303 100.982 142.458 100.982 142.627C100.982 142.75 101.005 142.862 101.051 142.962C101.101 143.058 101.183 143.146 101.297 143.229C101.411 143.306 101.566 143.379 101.762 143.447C101.962 143.516 102.213 143.582 102.513 143.646C103.079 143.764 103.564 143.917 103.97 144.104C104.38 144.286 104.694 144.523 104.913 144.814C105.132 145.102 105.241 145.466 105.241 145.908C105.241 146.236 105.17 146.537 105.029 146.811C104.892 147.079 104.692 147.314 104.428 147.515C104.163 147.711 103.846 147.863 103.477 147.973C103.113 148.082 102.703 148.137 102.247 148.137C101.577 148.137 101.01 148.018 100.545 147.781C100.08 147.54 99.7267 147.232 99.4852 146.858C99.2482 146.48 99.1297 146.088 99.1297 145.683H100.722C100.741 145.988 100.825 146.232 100.975 146.414C101.13 146.592 101.322 146.722 101.55 146.804C101.782 146.881 102.021 146.92 102.267 146.92C102.564 146.92 102.812 146.881 103.013 146.804C103.213 146.722 103.366 146.612 103.471 146.476C103.575 146.334 103.628 146.175 103.628 145.997Z" fill="#6750A4"/>
</g>
<g filter="url(#filter6_dd_53310_27665)">
<rect x="131" y="117" width="90" height="52" rx="12" fill="#FFFBFE"/>
<rect x="131" y="117" width="90" height="52" rx="12" fill="#6750A4" fill-opacity="0.05"/>
<path d="M159.588 146.688V148H152.916V146.872L156.156 143.338C156.512 142.937 156.792 142.59 156.997 142.299C157.202 142.007 157.346 141.745 157.428 141.513C157.515 141.276 157.558 141.046 157.558 140.822C157.558 140.508 157.499 140.232 157.38 139.995C157.266 139.754 157.098 139.564 156.874 139.428C156.651 139.286 156.38 139.216 156.061 139.216C155.692 139.216 155.382 139.296 155.131 139.455C154.88 139.615 154.691 139.836 154.564 140.118C154.436 140.396 154.372 140.715 154.372 141.075H152.725C152.725 140.496 152.857 139.968 153.121 139.489C153.386 139.006 153.768 138.623 154.27 138.341C154.771 138.054 155.375 137.91 156.081 137.91C156.747 137.91 157.312 138.022 157.777 138.245C158.241 138.468 158.595 138.785 158.836 139.195C159.082 139.605 159.205 140.091 159.205 140.651C159.205 140.961 159.155 141.269 159.055 141.574C158.955 141.88 158.811 142.185 158.624 142.49C158.442 142.791 158.225 143.094 157.975 143.399C157.724 143.7 157.448 144.006 157.148 144.315L154.994 146.688H159.588ZM162.703 143.372L161.39 143.051L161.93 138.047H167.296V139.441H163.297L163.024 141.882C163.179 141.791 163.393 141.702 163.667 141.615C163.94 141.524 164.252 141.479 164.603 141.479C165.073 141.479 165.492 141.556 165.861 141.711C166.235 141.861 166.551 142.082 166.811 142.374C167.071 142.661 167.269 143.012 167.406 143.427C167.543 143.837 167.611 144.299 167.611 144.814C167.611 145.275 167.543 145.705 167.406 146.106C167.274 146.507 167.073 146.861 166.804 147.166C166.535 147.471 166.196 147.711 165.786 147.884C165.38 148.052 164.899 148.137 164.343 148.137C163.929 148.137 163.53 148.077 163.147 147.959C162.769 147.836 162.429 147.656 162.129 147.419C161.828 147.177 161.586 146.881 161.404 146.53C161.222 146.175 161.117 145.767 161.089 145.307H162.703C162.744 145.63 162.833 145.906 162.969 146.134C163.111 146.357 163.297 146.528 163.53 146.646C163.762 146.765 164.031 146.824 164.337 146.824C164.615 146.824 164.854 146.776 165.054 146.681C165.255 146.58 165.421 146.439 165.553 146.257C165.69 146.07 165.79 145.851 165.854 145.601C165.922 145.35 165.957 145.072 165.957 144.767C165.957 144.475 165.918 144.208 165.84 143.967C165.768 143.725 165.656 143.516 165.505 143.338C165.36 143.16 165.175 143.023 164.952 142.928C164.728 142.827 164.471 142.777 164.179 142.777C163.787 142.777 163.487 142.834 163.277 142.948C163.072 143.062 162.88 143.203 162.703 143.372ZM175.538 145.286C175.538 145.906 175.395 146.428 175.107 146.852C174.82 147.275 174.428 147.597 173.932 147.815C173.439 148.03 172.883 148.137 172.264 148.137C171.644 148.137 171.086 148.03 170.589 147.815C170.092 147.597 169.7 147.275 169.413 146.852C169.126 146.428 168.982 145.906 168.982 145.286C168.982 144.876 169.062 144.505 169.222 144.172C169.381 143.835 169.607 143.545 169.898 143.304C170.195 143.058 170.541 142.868 170.938 142.736C171.339 142.604 171.776 142.538 172.25 142.538C172.879 142.538 173.442 142.654 173.938 142.887C174.435 143.119 174.825 143.44 175.107 143.851C175.395 144.261 175.538 144.739 175.538 145.286ZM173.884 145.204C173.884 144.871 173.815 144.58 173.679 144.329C173.542 144.078 173.351 143.885 173.104 143.748C172.858 143.611 172.574 143.543 172.25 143.543C171.922 143.543 171.637 143.611 171.396 143.748C171.154 143.885 170.965 144.078 170.828 144.329C170.696 144.58 170.63 144.871 170.63 145.204C170.63 145.541 170.696 145.833 170.828 146.079C170.96 146.321 171.149 146.505 171.396 146.633C171.642 146.76 171.931 146.824 172.264 146.824C172.596 146.824 172.883 146.76 173.125 146.633C173.367 146.505 173.553 146.321 173.686 146.079C173.818 145.833 173.884 145.541 173.884 145.204ZM175.312 140.665C175.312 141.162 175.18 141.604 174.916 141.991C174.656 142.379 174.296 142.684 173.836 142.907C173.376 143.126 172.852 143.235 172.264 143.235C171.671 143.235 171.143 143.126 170.678 142.907C170.217 142.684 169.855 142.379 169.591 141.991C169.331 141.604 169.201 141.162 169.201 140.665C169.201 140.073 169.331 139.574 169.591 139.168C169.855 138.758 170.217 138.446 170.678 138.231C171.138 138.017 171.664 137.91 172.257 137.91C172.849 137.91 173.376 138.017 173.836 138.231C174.296 138.446 174.656 138.758 174.916 139.168C175.18 139.574 175.312 140.073 175.312 140.665ZM173.665 140.72C173.665 140.424 173.606 140.164 173.487 139.94C173.373 139.713 173.212 139.535 173.002 139.407C172.792 139.28 172.544 139.216 172.257 139.216C171.97 139.216 171.721 139.277 171.512 139.4C171.302 139.523 171.14 139.697 171.026 139.92C170.912 140.143 170.855 140.41 170.855 140.72C170.855 141.025 170.912 141.292 171.026 141.52C171.14 141.743 171.302 141.918 171.512 142.046C171.726 142.174 171.977 142.237 172.264 142.237C172.551 142.237 172.799 142.174 173.009 142.046C173.218 141.918 173.38 141.743 173.494 141.52C173.608 141.292 173.665 141.025 173.665 140.72ZM178.83 142.107V148H177.183V140.604H178.735L178.83 142.107ZM178.564 144.028L178.003 144.021C178.003 143.511 178.067 143.039 178.195 142.606C178.322 142.174 178.509 141.798 178.755 141.479C179.001 141.155 179.307 140.907 179.671 140.733C180.04 140.556 180.467 140.467 180.95 140.467C181.287 140.467 181.594 140.517 181.872 140.617C182.155 140.713 182.399 140.866 182.604 141.075C182.814 141.285 182.973 141.554 183.082 141.882C183.196 142.21 183.253 142.606 183.253 143.071V148H181.606V143.215C181.606 142.855 181.551 142.572 181.442 142.367C181.337 142.162 181.184 142.016 180.984 141.93C180.788 141.839 180.553 141.793 180.28 141.793C179.97 141.793 179.705 141.852 179.487 141.971C179.273 142.089 179.097 142.251 178.96 142.456C178.824 142.661 178.723 142.898 178.66 143.167C178.596 143.436 178.564 143.723 178.564 144.028ZM183.151 143.591L182.378 143.762C182.378 143.315 182.44 142.894 182.563 142.497C182.69 142.096 182.875 141.745 183.117 141.444C183.363 141.139 183.666 140.9 184.026 140.727C184.386 140.553 184.798 140.467 185.263 140.467C185.641 140.467 185.979 140.519 186.275 140.624C186.576 140.724 186.831 140.884 187.04 141.103C187.25 141.321 187.41 141.606 187.519 141.957C187.628 142.303 187.683 142.723 187.683 143.215V148H186.029V143.208C186.029 142.834 185.974 142.545 185.865 142.34C185.76 142.135 185.609 141.993 185.413 141.916C185.218 141.834 184.983 141.793 184.709 141.793C184.454 141.793 184.229 141.841 184.033 141.937C183.841 142.028 183.679 142.158 183.547 142.326C183.415 142.49 183.315 142.679 183.246 142.894C183.183 143.108 183.151 143.34 183.151 143.591ZM193.628 145.997C193.628 145.833 193.587 145.685 193.505 145.553C193.423 145.416 193.265 145.293 193.033 145.184C192.805 145.074 192.468 144.974 192.021 144.883C191.629 144.796 191.269 144.694 190.941 144.575C190.618 144.452 190.34 144.304 190.107 144.131C189.875 143.958 189.695 143.753 189.567 143.516C189.44 143.279 189.376 143.005 189.376 142.695C189.376 142.395 189.442 142.11 189.574 141.841C189.706 141.572 189.895 141.335 190.141 141.13C190.388 140.925 190.686 140.763 191.037 140.645C191.392 140.526 191.789 140.467 192.226 140.467C192.846 140.467 193.377 140.572 193.819 140.781C194.266 140.986 194.608 141.267 194.845 141.622C195.082 141.973 195.2 142.369 195.2 142.812H193.553C193.553 142.616 193.502 142.433 193.402 142.265C193.306 142.091 193.161 141.952 192.965 141.848C192.769 141.738 192.523 141.684 192.226 141.684C191.944 141.684 191.709 141.729 191.522 141.82C191.34 141.907 191.203 142.021 191.112 142.162C191.026 142.303 190.982 142.458 190.982 142.627C190.982 142.75 191.005 142.862 191.051 142.962C191.101 143.058 191.183 143.146 191.297 143.229C191.411 143.306 191.566 143.379 191.762 143.447C191.962 143.516 192.213 143.582 192.513 143.646C193.079 143.764 193.564 143.917 193.97 144.104C194.38 144.286 194.694 144.523 194.913 144.814C195.132 145.102 195.241 145.466 195.241 145.908C195.241 146.236 195.17 146.537 195.029 146.811C194.892 147.079 194.692 147.314 194.428 147.515C194.163 147.711 193.846 147.863 193.477 147.973C193.113 148.082 192.703 148.137 192.247 148.137C191.577 148.137 191.01 148.018 190.545 147.781C190.08 147.54 189.727 147.232 189.485 146.858C189.248 146.48 189.13 146.088 189.13 145.683H190.722C190.741 145.988 190.825 146.232 190.975 146.414C191.13 146.592 191.322 146.722 191.55 146.804C191.782 146.881 192.021 146.92 192.267 146.92C192.564 146.92 192.812 146.881 193.013 146.804C193.213 146.722 193.366 146.612 193.471 146.476C193.575 146.334 193.628 146.175 193.628 145.997Z" fill="#6750A4"/>
</g>
<g filter="url(#filter7_dd_53310_27665)">
<rect x="29" y="232" width="202" height="73" rx="12" fill="#FFFBFE"/>
<rect x="29" y="232" width="202" height="73" rx="12" fill="#6750A4" fill-opacity="0.08"/>
</g>
<g filter="url(#filter8_dd_53310_27665)">
<g clip-path="url(#clip4_53310_27665)">
<rect x="41" y="242" width="90" height="52" rx="12" fill="#FFFBFE"/>
<rect x="41" y="242" width="90" height="52" rx="12" fill="#6750A4" fill-opacity="0.05"/>
<path d="M61.7703 263.013V273H60.1229V264.968L57.6824 265.795V264.435L61.5721 263.013H61.7703ZM66.9699 271.414L66.9631 272.59C66.9631 273.055 66.8469 273.533 66.6145 274.025C66.382 274.518 66.0744 274.923 65.6916 275.242L64.8098 274.729C64.9374 274.524 65.0536 274.317 65.1584 274.107C65.2632 273.898 65.3475 273.674 65.4113 273.438C65.4751 273.201 65.507 272.938 65.507 272.651V271.414H66.9699ZM75.0475 267.189V268.816C75.0475 269.596 74.97 270.261 74.815 270.812C74.6646 271.359 74.4459 271.804 74.1588 272.146C73.8717 272.487 73.5276 272.738 73.1266 272.897C72.7301 273.057 72.2857 273.137 71.7936 273.137C71.4016 273.137 71.037 273.087 70.6998 272.986C70.3671 272.886 70.0663 272.729 69.7975 272.515C69.5286 272.3 69.2984 272.025 69.107 271.688C68.9202 271.346 68.7743 270.938 68.6695 270.464C68.5693 269.99 68.5191 269.441 68.5191 268.816V267.189C68.5191 266.406 68.5966 265.745 68.7516 265.207C68.9065 264.665 69.1275 264.225 69.4146 263.888C69.7018 263.546 70.0436 263.298 70.44 263.143C70.8411 262.988 71.2877 262.91 71.7799 262.91C72.1764 262.91 72.541 262.96 72.8736 263.061C73.2109 263.156 73.5117 263.309 73.776 263.519C74.0449 263.728 74.2727 264.002 74.4596 264.339C74.651 264.672 74.7968 265.075 74.8971 265.549C74.9973 266.018 75.0475 266.565 75.0475 267.189ZM73.4 269.049V266.943C73.4 266.547 73.3772 266.198 73.3316 265.897C73.2861 265.592 73.2177 265.335 73.1266 265.125C73.04 264.911 72.9306 264.738 72.7984 264.605C72.6663 264.469 72.5159 264.371 72.3473 264.312C72.1786 264.248 71.9895 264.216 71.7799 264.216C71.5247 264.216 71.2968 264.266 71.0963 264.366C70.8958 264.462 70.7271 264.617 70.5904 264.831C70.4537 265.045 70.3489 265.328 70.276 265.679C70.2076 266.025 70.1734 266.447 70.1734 266.943V269.049C70.1734 269.45 70.1962 269.803 70.2418 270.108C70.2874 270.414 70.3557 270.676 70.4469 270.895C70.538 271.109 70.6474 271.286 70.775 271.428C70.9072 271.564 71.0576 271.665 71.2262 271.729C71.3993 271.792 71.5885 271.824 71.7936 271.824C72.0533 271.824 72.2835 271.774 72.484 271.674C72.6845 271.574 72.8531 271.414 72.9898 271.195C73.1266 270.972 73.2291 270.683 73.2975 270.327C73.3658 269.972 73.4 269.546 73.4 269.049ZM83.2891 271.688V273H76.6172V271.872L79.8574 268.338C80.2129 267.937 80.4932 267.59 80.6982 267.299C80.9033 267.007 81.0469 266.745 81.1289 266.513C81.2155 266.276 81.2588 266.046 81.2588 265.822C81.2588 265.508 81.1995 265.232 81.0811 264.995C80.9671 264.754 80.7985 264.564 80.5752 264.428C80.3519 264.286 80.0807 264.216 79.7617 264.216C79.3926 264.216 79.0827 264.296 78.832 264.455C78.5814 264.615 78.3923 264.836 78.2646 265.118C78.137 265.396 78.0732 265.715 78.0732 266.075H76.4258C76.4258 265.496 76.5579 264.968 76.8223 264.489C77.0866 264.006 77.4694 263.623 77.9707 263.341C78.472 263.054 79.0758 262.91 79.7822 262.91C80.4476 262.91 81.0127 263.022 81.4775 263.245C81.9424 263.468 82.2956 263.785 82.5371 264.195C82.7832 264.605 82.9062 265.091 82.9062 265.651C82.9062 265.961 82.8561 266.269 82.7559 266.574C82.6556 266.88 82.512 267.185 82.3252 267.49C82.1429 267.791 81.9264 268.094 81.6758 268.399C81.4251 268.7 81.1494 269.006 80.8486 269.315L78.6953 271.688H83.2891ZM86.4037 268.372L85.0912 268.051L85.6313 263.047H90.9975V264.441H86.9984L86.725 266.882C86.8799 266.791 87.0941 266.702 87.3676 266.615C87.641 266.524 87.9532 266.479 88.3041 266.479C88.7735 266.479 89.1928 266.556 89.5619 266.711C89.9356 266.861 90.2523 267.082 90.5121 267.374C90.7719 267.661 90.9701 268.012 91.1068 268.427C91.2436 268.837 91.3119 269.299 91.3119 269.814C91.3119 270.275 91.2436 270.705 91.1068 271.106C90.9747 271.507 90.7742 271.861 90.5053 272.166C90.2364 272.471 89.8969 272.711 89.4867 272.884C89.0811 273.052 88.6003 273.137 88.0443 273.137C87.6296 273.137 87.2309 273.077 86.848 272.959C86.4698 272.836 86.1303 272.656 85.8295 272.419C85.5287 272.177 85.2872 271.881 85.1049 271.53C84.9226 271.175 84.8178 270.767 84.7904 270.307H86.4037C86.4447 270.63 86.5336 270.906 86.6703 271.134C86.8116 271.357 86.9984 271.528 87.2309 271.646C87.4633 271.765 87.7322 271.824 88.0375 271.824C88.3155 271.824 88.5548 271.776 88.7553 271.681C88.9558 271.58 89.1221 271.439 89.2543 271.257C89.391 271.07 89.4913 270.851 89.5551 270.601C89.6234 270.35 89.6576 270.072 89.6576 269.767C89.6576 269.475 89.6189 269.208 89.5414 268.967C89.4685 268.725 89.3568 268.516 89.2064 268.338C89.0606 268.16 88.876 268.023 88.6527 267.928C88.4294 267.827 88.1719 267.777 87.8803 267.777C87.4883 267.777 87.1876 267.834 86.9779 267.948C86.7729 268.062 86.5814 268.203 86.4037 268.372ZM94.4744 267.107V273H92.827V265.604H94.3787L94.4744 267.107ZM94.2078 269.028L93.6473 269.021C93.6473 268.511 93.7111 268.039 93.8387 267.606C93.9663 267.174 94.1531 266.798 94.3992 266.479C94.6453 266.155 94.9507 265.907 95.3152 265.733C95.6844 265.556 96.1105 265.467 96.5936 265.467C96.9308 265.467 97.2384 265.517 97.5164 265.617C97.799 265.713 98.0428 265.866 98.2479 266.075C98.4575 266.285 98.617 266.554 98.7264 266.882C98.8403 267.21 98.8973 267.606 98.8973 268.071V273H97.2498V268.215C97.2498 267.855 97.1951 267.572 97.0857 267.367C96.9809 267.162 96.8283 267.016 96.6277 266.93C96.4318 266.839 96.1971 266.793 95.9236 266.793C95.6137 266.793 95.3494 266.852 95.1307 266.971C94.9165 267.089 94.741 267.251 94.6043 267.456C94.4676 267.661 94.3673 267.898 94.3035 268.167C94.2397 268.436 94.2078 268.723 94.2078 269.028ZM98.7947 268.591L98.0223 268.762C98.0223 268.315 98.0838 267.894 98.2068 267.497C98.3344 267.096 98.519 266.745 98.7605 266.444C99.0066 266.139 99.3097 265.9 99.6697 265.727C100.03 265.553 100.442 265.467 100.907 265.467C101.285 265.467 101.623 265.519 101.919 265.624C102.22 265.724 102.475 265.884 102.684 266.103C102.894 266.321 103.054 266.606 103.163 266.957C103.272 267.303 103.327 267.723 103.327 268.215V273H101.673V268.208C101.673 267.834 101.618 267.545 101.509 267.34C101.404 267.135 101.253 266.993 101.057 266.916C100.861 266.834 100.627 266.793 100.353 266.793C100.098 266.793 99.8725 266.841 99.6766 266.937C99.4852 267.028 99.3234 267.158 99.1912 267.326C99.0591 267.49 98.9588 267.679 98.8904 267.894C98.8266 268.108 98.7947 268.34 98.7947 268.591ZM109.272 270.997C109.272 270.833 109.231 270.685 109.149 270.553C109.067 270.416 108.909 270.293 108.677 270.184C108.449 270.074 108.112 269.974 107.665 269.883C107.273 269.796 106.913 269.694 106.585 269.575C106.262 269.452 105.984 269.304 105.751 269.131C105.519 268.958 105.339 268.753 105.211 268.516C105.084 268.279 105.02 268.005 105.02 267.695C105.02 267.395 105.086 267.11 105.218 266.841C105.35 266.572 105.539 266.335 105.785 266.13C106.031 265.925 106.33 265.763 106.681 265.645C107.036 265.526 107.433 265.467 107.87 265.467C108.49 265.467 109.021 265.572 109.463 265.781C109.91 265.986 110.251 266.267 110.488 266.622C110.725 266.973 110.844 267.369 110.844 267.812H109.196C109.196 267.616 109.146 267.433 109.046 267.265C108.95 267.091 108.805 266.952 108.609 266.848C108.413 266.738 108.167 266.684 107.87 266.684C107.588 266.684 107.353 266.729 107.166 266.82C106.984 266.907 106.847 267.021 106.756 267.162C106.669 267.303 106.626 267.458 106.626 267.627C106.626 267.75 106.649 267.862 106.695 267.962C106.745 268.058 106.827 268.146 106.941 268.229C107.055 268.306 107.21 268.379 107.405 268.447C107.606 268.516 107.857 268.582 108.157 268.646C108.723 268.764 109.208 268.917 109.613 269.104C110.024 269.286 110.338 269.523 110.557 269.814C110.776 270.102 110.885 270.466 110.885 270.908C110.885 271.236 110.814 271.537 110.673 271.811C110.536 272.079 110.336 272.314 110.071 272.515C109.807 272.711 109.49 272.863 109.121 272.973C108.757 273.082 108.347 273.137 107.891 273.137C107.221 273.137 106.654 273.018 106.189 272.781C105.724 272.54 105.371 272.232 105.129 271.858C104.892 271.48 104.774 271.088 104.774 270.683H106.366C106.385 270.988 106.469 271.232 106.619 271.414C106.774 271.592 106.966 271.722 107.194 271.804C107.426 271.881 107.665 271.92 107.911 271.92C108.208 271.92 108.456 271.881 108.656 271.804C108.857 271.722 109.01 271.612 109.114 271.476C109.219 271.334 109.272 271.175 109.272 270.997Z" fill="#6750A4"/>
</g>
</g>
<g filter="url(#filter9_dd_53310_27665)">
<g clip-path="url(#clip5_53310_27665)">
<rect x="131" y="242" width="90" height="52" rx="12" fill="#FFFBFE"/>
<rect x="131" y="242" width="90" height="52" rx="12" fill="#6750A4" fill-opacity="0.05"/>
<path d="M151.852 262.992V273H150.588V264.571L148.038 265.501V264.359L151.654 262.992H151.852ZM156.956 271.496V272.515C156.956 272.929 156.851 273.367 156.642 273.827C156.432 274.292 156.138 274.679 155.76 274.989L155.042 274.49C155.188 274.29 155.311 274.085 155.411 273.875C155.512 273.67 155.587 273.456 155.637 273.232C155.692 273.014 155.719 272.781 155.719 272.535V271.496H156.956ZM164.781 267.23V268.748C164.781 269.564 164.708 270.252 164.562 270.812C164.416 271.373 164.207 271.824 163.933 272.166C163.66 272.508 163.329 272.756 162.942 272.911C162.559 273.062 162.126 273.137 161.643 273.137C161.26 273.137 160.907 273.089 160.584 272.993C160.26 272.897 159.968 272.745 159.709 272.535C159.453 272.321 159.235 272.043 159.052 271.701C158.87 271.359 158.731 270.945 158.635 270.457C158.54 269.969 158.492 269.4 158.492 268.748V267.23C158.492 266.415 158.565 265.731 158.711 265.18C158.861 264.628 159.073 264.186 159.346 263.854C159.62 263.516 159.948 263.275 160.331 263.129C160.718 262.983 161.151 262.91 161.629 262.91C162.017 262.91 162.372 262.958 162.696 263.054C163.024 263.145 163.316 263.293 163.571 263.498C163.826 263.699 164.043 263.967 164.22 264.305C164.403 264.637 164.542 265.045 164.637 265.528C164.733 266.011 164.781 266.579 164.781 267.23ZM163.509 268.953V267.019C163.509 266.572 163.482 266.18 163.427 265.843C163.377 265.501 163.302 265.209 163.202 264.968C163.101 264.726 162.974 264.53 162.819 264.38C162.669 264.229 162.493 264.12 162.293 264.052C162.097 263.979 161.876 263.942 161.629 263.942C161.329 263.942 161.062 263.999 160.83 264.113C160.597 264.223 160.401 264.398 160.242 264.64C160.087 264.881 159.968 265.198 159.886 265.59C159.804 265.982 159.763 266.458 159.763 267.019V268.953C159.763 269.4 159.788 269.794 159.838 270.136C159.893 270.478 159.973 270.774 160.078 271.024C160.183 271.271 160.31 271.473 160.461 271.633C160.611 271.792 160.784 271.911 160.98 271.988C161.181 272.061 161.402 272.098 161.643 272.098C161.953 272.098 162.224 272.038 162.457 271.92C162.689 271.801 162.883 271.617 163.038 271.366C163.197 271.111 163.316 270.785 163.393 270.389C163.471 269.988 163.509 269.509 163.509 268.953ZM173.029 271.961V273H166.515V272.091L169.775 268.461C170.176 268.014 170.486 267.636 170.705 267.326C170.928 267.012 171.083 266.731 171.17 266.485C171.261 266.235 171.307 265.979 171.307 265.72C171.307 265.392 171.238 265.095 171.102 264.831C170.969 264.562 170.773 264.348 170.514 264.188C170.254 264.029 169.939 263.949 169.57 263.949C169.128 263.949 168.759 264.036 168.463 264.209C168.171 264.378 167.952 264.615 167.807 264.92C167.661 265.225 167.588 265.576 167.588 265.973H166.323C166.323 265.412 166.446 264.899 166.692 264.435C166.938 263.97 167.303 263.601 167.786 263.327C168.269 263.049 168.864 262.91 169.57 262.91C170.199 262.91 170.737 263.022 171.184 263.245C171.63 263.464 171.972 263.774 172.209 264.175C172.451 264.571 172.571 265.036 172.571 265.569C172.571 265.861 172.521 266.157 172.421 266.458C172.325 266.754 172.191 267.05 172.018 267.347C171.849 267.643 171.651 267.935 171.423 268.222C171.2 268.509 170.96 268.791 170.705 269.069L168.039 271.961H173.029ZM179.336 263.033H179.446V264.106H179.336C178.666 264.106 178.106 264.216 177.655 264.435C177.204 264.649 176.846 264.938 176.581 265.303C176.317 265.663 176.126 266.068 176.007 266.52C175.893 266.971 175.836 267.429 175.836 267.894V269.356C175.836 269.799 175.889 270.19 175.994 270.532C176.098 270.869 176.242 271.154 176.424 271.387C176.607 271.619 176.812 271.795 177.039 271.913C177.272 272.032 177.513 272.091 177.764 272.091C178.056 272.091 178.315 272.036 178.543 271.927C178.771 271.813 178.963 271.656 179.118 271.455C179.277 271.25 179.398 271.008 179.48 270.73C179.562 270.452 179.603 270.147 179.603 269.814C179.603 269.518 179.566 269.233 179.494 268.96C179.421 268.682 179.309 268.436 179.159 268.222C179.008 268.003 178.819 267.832 178.591 267.709C178.368 267.581 178.101 267.518 177.791 267.518C177.44 267.518 177.112 267.604 176.807 267.777C176.506 267.946 176.258 268.169 176.062 268.447C175.871 268.721 175.761 269.019 175.734 269.343L175.064 269.336C175.128 268.826 175.246 268.39 175.419 268.03C175.597 267.666 175.816 267.369 176.076 267.142C176.34 266.909 176.634 266.741 176.957 266.636C177.286 266.526 177.632 266.472 177.996 266.472C178.493 266.472 178.922 266.565 179.282 266.752C179.642 266.939 179.938 267.189 180.17 267.504C180.403 267.814 180.574 268.165 180.683 268.557C180.797 268.944 180.854 269.343 180.854 269.753C180.854 270.222 180.788 270.662 180.656 271.072C180.524 271.482 180.325 271.842 180.061 272.152C179.801 272.462 179.48 272.704 179.097 272.877C178.714 273.05 178.27 273.137 177.764 273.137C177.226 273.137 176.757 273.027 176.356 272.809C175.955 272.585 175.622 272.289 175.358 271.92C175.093 271.551 174.895 271.141 174.763 270.689C174.631 270.238 174.565 269.78 174.565 269.315V268.721C174.565 268.019 174.635 267.331 174.777 266.656C174.918 265.982 175.162 265.371 175.508 264.824C175.859 264.277 176.344 263.842 176.964 263.519C177.584 263.195 178.375 263.033 179.336 263.033ZM184.126 267.107V273H182.478V265.604H184.03L184.126 267.107ZM183.859 269.028L183.299 269.021C183.299 268.511 183.362 268.039 183.49 267.606C183.618 267.174 183.804 266.798 184.051 266.479C184.297 266.155 184.602 265.907 184.967 265.733C185.336 265.556 185.762 265.467 186.245 265.467C186.582 265.467 186.89 265.517 187.168 265.617C187.45 265.713 187.694 265.866 187.899 266.075C188.109 266.285 188.268 266.554 188.378 266.882C188.492 267.21 188.549 267.606 188.549 268.071V273H186.901V268.215C186.901 267.855 186.846 267.572 186.737 267.367C186.632 267.162 186.48 267.016 186.279 266.93C186.083 266.839 185.848 266.793 185.575 266.793C185.265 266.793 185.001 266.852 184.782 266.971C184.568 267.089 184.392 267.251 184.256 267.456C184.119 267.661 184.019 267.898 183.955 268.167C183.891 268.436 183.859 268.723 183.859 269.028ZM188.446 268.591L187.674 268.762C187.674 268.315 187.735 267.894 187.858 267.497C187.986 267.096 188.17 266.745 188.412 266.444C188.658 266.139 188.961 265.9 189.321 265.727C189.681 265.553 190.094 265.467 190.558 265.467C190.937 265.467 191.274 265.519 191.57 265.624C191.871 265.724 192.126 265.884 192.336 266.103C192.545 266.321 192.705 266.606 192.814 266.957C192.924 267.303 192.978 267.723 192.978 268.215V273H191.324V268.208C191.324 267.834 191.269 267.545 191.16 267.34C191.055 267.135 190.905 266.993 190.709 266.916C190.513 266.834 190.278 266.793 190.005 266.793C189.749 266.793 189.524 266.841 189.328 266.937C189.137 267.028 188.975 267.158 188.843 267.326C188.71 267.49 188.61 267.679 188.542 267.894C188.478 268.108 188.446 268.34 188.446 268.591ZM198.923 270.997C198.923 270.833 198.882 270.685 198.8 270.553C198.718 270.416 198.561 270.293 198.328 270.184C198.1 270.074 197.763 269.974 197.317 269.883C196.925 269.796 196.565 269.694 196.237 269.575C195.913 269.452 195.635 269.304 195.403 269.131C195.17 268.958 194.99 268.753 194.862 268.516C194.735 268.279 194.671 268.005 194.671 267.695C194.671 267.395 194.737 267.11 194.869 266.841C195.001 266.572 195.191 266.335 195.437 266.13C195.683 265.925 195.981 265.763 196.332 265.645C196.688 265.526 197.084 265.467 197.522 265.467C198.141 265.467 198.672 265.572 199.114 265.781C199.561 265.986 199.903 266.267 200.14 266.622C200.377 266.973 200.495 267.369 200.495 267.812H198.848C198.848 267.616 198.798 267.433 198.697 267.265C198.602 267.091 198.456 266.952 198.26 266.848C198.064 266.738 197.818 266.684 197.522 266.684C197.239 266.684 197.004 266.729 196.818 266.82C196.635 266.907 196.499 267.021 196.407 267.162C196.321 267.303 196.278 267.458 196.278 267.627C196.278 267.75 196.3 267.862 196.346 267.962C196.396 268.058 196.478 268.146 196.592 268.229C196.706 268.306 196.861 268.379 197.057 268.447C197.257 268.516 197.508 268.582 197.809 268.646C198.374 268.764 198.859 268.917 199.265 269.104C199.675 269.286 199.989 269.523 200.208 269.814C200.427 270.102 200.536 270.466 200.536 270.908C200.536 271.236 200.466 271.537 200.324 271.811C200.188 272.079 199.987 272.314 199.723 272.515C199.459 272.711 199.142 272.863 198.773 272.973C198.408 273.082 197.998 273.137 197.542 273.137C196.872 273.137 196.305 273.018 195.84 272.781C195.375 272.54 195.022 272.232 194.78 271.858C194.543 271.48 194.425 271.088 194.425 270.683H196.018C196.036 270.988 196.12 271.232 196.271 271.414C196.426 271.592 196.617 271.722 196.845 271.804C197.077 271.881 197.317 271.92 197.563 271.92C197.859 271.92 198.107 271.881 198.308 271.804C198.508 271.722 198.661 271.612 198.766 271.476C198.871 271.334 198.923 271.175 198.923 270.997Z" fill="#6750A4"/>
</g>
</g>
<g filter="url(#filter10_dd_53310_27665)">
<rect x="269" y="116" width="90" height="52" rx="12" fill="#FFFBFE"/>
<rect x="269" y="116" width="90" height="52" rx="12" fill="#6750A4" fill-opacity="0.05"/>
<path d="M292.646 142.372L291.333 142.051L291.873 137.047H297.239V138.441H293.24L292.967 140.882C293.122 140.791 293.336 140.702 293.61 140.615C293.883 140.524 294.195 140.479 294.546 140.479C295.015 140.479 295.435 140.556 295.804 140.711C296.178 140.861 296.494 141.082 296.754 141.374C297.014 141.661 297.212 142.012 297.349 142.427C297.486 142.837 297.554 143.299 297.554 143.814C297.554 144.275 297.486 144.705 297.349 145.106C297.217 145.507 297.016 145.861 296.747 146.166C296.478 146.471 296.139 146.711 295.729 146.884C295.323 147.052 294.842 147.137 294.286 147.137C293.872 147.137 293.473 147.077 293.09 146.959C292.712 146.836 292.372 146.656 292.071 146.419C291.771 146.177 291.529 145.881 291.347 145.53C291.165 145.175 291.06 144.767 291.032 144.307H292.646C292.687 144.63 292.776 144.906 292.912 145.134C293.054 145.357 293.24 145.528 293.473 145.646C293.705 145.765 293.974 145.824 294.279 145.824C294.557 145.824 294.797 145.776 294.997 145.681C295.198 145.58 295.364 145.439 295.496 145.257C295.633 145.07 295.733 144.851 295.797 144.601C295.865 144.35 295.9 144.072 295.9 143.767C295.9 143.475 295.861 143.208 295.783 142.967C295.71 142.725 295.599 142.516 295.448 142.338C295.303 142.16 295.118 142.023 294.895 141.928C294.671 141.827 294.414 141.777 294.122 141.777C293.73 141.777 293.43 141.834 293.22 141.948C293.015 142.062 292.823 142.203 292.646 142.372ZM303.471 137.013V147H301.824V138.968L299.383 139.795V138.435L303.273 137.013H303.471ZM313.702 145.688V147H307.03V145.872L310.271 142.338C310.626 141.937 310.906 141.59 311.111 141.299C311.316 141.007 311.46 140.745 311.542 140.513C311.629 140.276 311.672 140.046 311.672 139.822C311.672 139.508 311.613 139.232 311.494 138.995C311.38 138.754 311.212 138.564 310.988 138.428C310.765 138.286 310.494 138.216 310.175 138.216C309.806 138.216 309.496 138.296 309.245 138.455C308.994 138.615 308.805 138.836 308.678 139.118C308.55 139.396 308.486 139.715 308.486 140.075H306.839C306.839 139.496 306.971 138.968 307.235 138.489C307.5 138.006 307.882 137.623 308.384 137.341C308.885 137.054 309.489 136.91 310.195 136.91C310.861 136.91 311.426 137.022 311.891 137.245C312.355 137.468 312.709 137.785 312.95 138.195C313.196 138.605 313.319 139.091 313.319 139.651C313.319 139.961 313.269 140.269 313.169 140.574C313.069 140.88 312.925 141.185 312.738 141.49C312.556 141.791 312.34 142.094 312.089 142.399C311.838 142.7 311.562 143.006 311.262 143.315L309.108 145.688H313.702ZM316.83 141.107V147H315.183V139.604H316.735L316.83 141.107ZM316.564 143.028L316.003 143.021C316.003 142.511 316.067 142.039 316.195 141.606C316.322 141.174 316.509 140.798 316.755 140.479C317.001 140.155 317.307 139.907 317.671 139.733C318.04 139.556 318.467 139.467 318.95 139.467C319.287 139.467 319.594 139.517 319.872 139.617C320.155 139.713 320.399 139.866 320.604 140.075C320.814 140.285 320.973 140.554 321.082 140.882C321.196 141.21 321.253 141.606 321.253 142.071V147H319.606V142.215C319.606 141.855 319.551 141.572 319.442 141.367C319.337 141.162 319.184 141.016 318.984 140.93C318.788 140.839 318.553 140.793 318.28 140.793C317.97 140.793 317.705 140.852 317.487 140.971C317.273 141.089 317.097 141.251 316.96 141.456C316.824 141.661 316.723 141.898 316.66 142.167C316.596 142.436 316.564 142.723 316.564 143.028ZM321.151 142.591L320.378 142.762C320.378 142.315 320.44 141.894 320.563 141.497C320.69 141.096 320.875 140.745 321.117 140.444C321.363 140.139 321.666 139.9 322.026 139.727C322.386 139.553 322.798 139.467 323.263 139.467C323.641 139.467 323.979 139.519 324.275 139.624C324.576 139.724 324.831 139.884 325.04 140.103C325.25 140.321 325.41 140.606 325.519 140.957C325.628 141.303 325.683 141.723 325.683 142.215V147H324.029V142.208C324.029 141.834 323.974 141.545 323.865 141.34C323.76 141.135 323.609 140.993 323.413 140.916C323.218 140.834 322.983 140.793 322.709 140.793C322.454 140.793 322.229 140.841 322.033 140.937C321.841 141.028 321.679 141.158 321.547 141.326C321.415 141.49 321.315 141.679 321.246 141.894C321.183 142.108 321.151 142.34 321.151 142.591ZM331.628 144.997C331.628 144.833 331.587 144.685 331.505 144.553C331.423 144.416 331.265 144.293 331.033 144.184C330.805 144.074 330.468 143.974 330.021 143.883C329.629 143.796 329.269 143.694 328.941 143.575C328.618 143.452 328.34 143.304 328.107 143.131C327.875 142.958 327.695 142.753 327.567 142.516C327.44 142.279 327.376 142.005 327.376 141.695C327.376 141.395 327.442 141.11 327.574 140.841C327.706 140.572 327.895 140.335 328.141 140.13C328.388 139.925 328.686 139.763 329.037 139.645C329.392 139.526 329.789 139.467 330.226 139.467C330.846 139.467 331.377 139.572 331.819 139.781C332.266 139.986 332.608 140.267 332.845 140.622C333.082 140.973 333.2 141.369 333.2 141.812H331.553C331.553 141.616 331.502 141.433 331.402 141.265C331.306 141.091 331.161 140.952 330.965 140.848C330.769 140.738 330.523 140.684 330.226 140.684C329.944 140.684 329.709 140.729 329.522 140.82C329.34 140.907 329.203 141.021 329.112 141.162C329.026 141.303 328.982 141.458 328.982 141.627C328.982 141.75 329.005 141.862 329.051 141.962C329.101 142.058 329.183 142.146 329.297 142.229C329.411 142.306 329.566 142.379 329.762 142.447C329.962 142.516 330.213 142.582 330.513 142.646C331.079 142.764 331.564 142.917 331.97 143.104C332.38 143.286 332.694 143.523 332.913 143.814C333.132 144.102 333.241 144.466 333.241 144.908C333.241 145.236 333.17 145.537 333.029 145.811C332.892 146.079 332.692 146.314 332.428 146.515C332.163 146.711 331.846 146.863 331.477 146.973C331.113 147.082 330.703 147.137 330.247 147.137C329.577 147.137 329.01 147.018 328.545 146.781C328.08 146.54 327.727 146.232 327.485 145.858C327.248 145.48 327.13 145.088 327.13 144.683H328.722C328.741 144.988 328.825 145.232 328.975 145.414C329.13 145.592 329.322 145.722 329.55 145.804C329.782 145.881 330.021 145.92 330.267 145.92C330.564 145.92 330.812 145.881 331.013 145.804C331.213 145.722 331.366 145.612 331.471 145.476C331.575 145.334 331.628 145.175 331.628 144.997Z" fill="#6750A4"/>
</g>
<defs>
<filter id="filter0_dd_53310_27665" x="25" y="20" width="349" height="81" filterUnits="userSpaceOnUse" color-interpolation-filters="sRGB">
<feFlood flood-opacity="0" result="BackgroundImageFix"/>
<feColorMatrix in="SourceAlpha" type="matrix" values="0 0 0 0 0 0 0 0 0 0 0 0 0 0 0 0 0 0 127 0" result="hardAlpha"/>
<feMorphology radius="1" operator="dilate" in="SourceAlpha" result="effect1_dropShadow_53310_27665"/>
<feOffset dy="1"/>
<feGaussianBlur stdDeviation="1.5"/>
<feColorMatrix type="matrix" values="0 0 0 0 0 0 0 0 0 0 0 0 0 0 0 0 0 0 0.15 0"/>
<feBlend mode="normal" in2="BackgroundImageFix" result="effect1_dropShadow_53310_27665"/>
<feColorMatrix in="SourceAlpha" type="matrix" values="0 0 0 0 0 0 0 0 0 0 0 0 0 0 0 0 0 0 127 0" result="hardAlpha"/>
<feOffset dy="1"/>
<feGaussianBlur stdDeviation="1"/>
<feColorMatrix type="matrix" values="0 0 0 0 0 0 0 0 0 0 0 0 0 0 0 0 0 0 0.3 0"/>
<feBlend mode="normal" in2="effect1_dropShadow_53310_27665" result="effect2_dropShadow_53310_27665"/>
<feBlend mode="normal" in="SourceGraphic" in2="effect2_dropShadow_53310_27665" result="shape"/>
</filter>
<filter id="filter1_dd_53310_27665" x="37" y="30" width="98" height="60" filterUnits="userSpaceOnUse" color-interpolation-filters="sRGB">
<feFlood flood-opacity="0" result="BackgroundImageFix"/>
<feColorMatrix in="SourceAlpha" type="matrix" values="0 0 0 0 0 0 0 0 0 0 0 0 0 0 0 0 0 0 127 0" result="hardAlpha"/>
<feMorphology radius="1" operator="dilate" in="SourceAlpha" result="effect1_dropShadow_53310_27665"/>
<feOffset dy="1"/>
<feGaussianBlur stdDeviation="1.5"/>
<feColorMatrix type="matrix" values="0 0 0 0 0 0 0 0 0 0 0 0 0 0 0 0 0 0 0.15 0"/>
<feBlend mode="normal" in2="BackgroundImageFix" result="effect1_dropShadow_53310_27665"/>
<feColorMatrix in="SourceAlpha" type="matrix" values="0 0 0 0 0 0 0 0 0 0 0 0 0 0 0 0 0 0 127 0" result="hardAlpha"/>
<feOffset dy="1"/>
<feGaussianBlur stdDeviation="1"/>
<feColorMatrix type="matrix" values="0 0 0 0 0 0 0 0 0 0 0 0 0 0 0 0 0 0 0.3 0"/>
<feBlend mode="normal" in2="effect1_dropShadow_53310_27665" result="effect2_dropShadow_53310_27665"/>
<feBlend mode="normal" in="SourceGraphic" in2="effect2_dropShadow_53310_27665" result="shape"/>
</filter>
<filter id="filter2_dd_53310_27665" x="127" y="30" width="98" height="60" filterUnits="userSpaceOnUse" color-interpolation-filters="sRGB">
<feFlood flood-opacity="0" result="BackgroundImageFix"/>
<feColorMatrix in="SourceAlpha" type="matrix" values="0 0 0 0 0 0 0 0 0 0 0 0 0 0 0 0 0 0 127 0" result="hardAlpha"/>
<feMorphology radius="1" operator="dilate" in="SourceAlpha" result="effect1_dropShadow_53310_27665"/>
<feOffset dy="1"/>
<feGaussianBlur stdDeviation="1.5"/>
<feColorMatrix type="matrix" values="0 0 0 0 0 0 0 0 0 0 0 0 0 0 0 0 0 0 0.15 0"/>
<feBlend mode="normal" in2="BackgroundImageFix" result="effect1_dropShadow_53310_27665"/>
<feColorMatrix in="SourceAlpha" type="matrix" values="0 0 0 0 0 0 0 0 0 0 0 0 0 0 0 0 0 0 127 0" result="hardAlpha"/>
<feOffset dy="1"/>
<feGaussianBlur stdDeviation="1"/>
<feColorMatrix type="matrix" values="0 0 0 0 0 0 0 0 0 0 0 0 0 0 0 0 0 0 0.3 0"/>
<feBlend mode="normal" in2="effect1_dropShadow_53310_27665" result="effect2_dropShadow_53310_27665"/>
<feBlend mode="normal" in="SourceGraphic" in2="effect2_dropShadow_53310_27665" result="shape"/>
</filter>
<filter id="filter3_dd_53310_27665" x="265" y="29" width="98" height="60" filterUnits="userSpaceOnUse" color-interpolation-filters="sRGB">
<feFlood flood-opacity="0" result="BackgroundImageFix"/>
<feColorMatrix in="SourceAlpha" type="matrix" values="0 0 0 0 0 0 0 0 0 0 0 0 0 0 0 0 0 0 127 0" result="hardAlpha"/>
<feMorphology radius="1" operator="dilate" in="SourceAlpha" result="effect1_dropShadow_53310_27665"/>
<feOffset dy="1"/>
<feGaussianBlur stdDeviation="1.5"/>
<feColorMatrix type="matrix" values="0 0 0 0 0 0 0 0 0 0 0 0 0 0 0 0 0 0 0.15 0"/>
<feBlend mode="normal" in2="BackgroundImageFix" result="effect1_dropShadow_53310_27665"/>
<feColorMatrix in="SourceAlpha" type="matrix" values="0 0 0 0 0 0 0 0 0 0 0 0 0 0 0 0 0 0 127 0" result="hardAlpha"/>
<feOffset dy="1"/>
<feGaussianBlur stdDeviation="1"/>
<feColorMatrix type="matrix" values="0 0 0 0 0 0 0 0 0 0 0 0 0 0 0 0 0 0 0.3 0"/>
<feBlend mode="normal" in2="effect1_dropShadow_53310_27665" result="effect2_dropShadow_53310_27665"/>
<feBlend mode="normal" in="SourceGraphic" in2="effect2_dropShadow_53310_27665" result="shape"/>
</filter>
<filter id="filter4_dd_53310_27665" x="25" y="104" width="349" height="81" filterUnits="userSpaceOnUse" color-interpolation-filters="sRGB">
<feFlood flood-opacity="0" result="BackgroundImageFix"/>
<feColorMatrix in="SourceAlpha" type="matrix" values="0 0 0 0 0 0 0 0 0 0 0 0 0 0 0 0 0 0 127 0" result="hardAlpha"/>
<feMorphology radius="1" operator="dilate" in="SourceAlpha" result="effect1_dropShadow_53310_27665"/>
<feOffset dy="1"/>
<feGaussianBlur stdDeviation="1.5"/>
<feColorMatrix type="matrix" values="0 0 0 0 0 0 0 0 0 0 0 0 0 0 0 0 0 0 0.15 0"/>
<feBlend mode="normal" in2="BackgroundImageFix" result="effect1_dropShadow_53310_27665"/>
<feColorMatrix in="SourceAlpha" type="matrix" values="0 0 0 0 0 0 0 0 0 0 0 0 0 0 0 0 0 0 127 0" result="hardAlpha"/>
<feOffset dy="1"/>
<feGaussianBlur stdDeviation="1"/>
<feColorMatrix type="matrix" values="0 0 0 0 0 0 0 0 0 0 0 0 0 0 0 0 0 0 0.3 0"/>
<feBlend mode="normal" in2="effect1_dropShadow_53310_27665" result="effect2_dropShadow_53310_27665"/>
<feBlend mode="normal" in="SourceGraphic" in2="effect2_dropShadow_53310_27665" result="shape"/>
</filter>
<filter id="filter5_dd_53310_27665" x="37" y="114" width="98" height="60" filterUnits="userSpaceOnUse" color-interpolation-filters="sRGB">
<feFlood flood-opacity="0" result="BackgroundImageFix"/>
<feColorMatrix in="SourceAlpha" type="matrix" values="0 0 0 0 0 0 0 0 0 0 0 0 0 0 0 0 0 0 127 0" result="hardAlpha"/>
<feMorphology radius="1" operator="dilate" in="SourceAlpha" result="effect1_dropShadow_53310_27665"/>
<feOffset dy="1"/>
<feGaussianBlur stdDeviation="1.5"/>
<feColorMatrix type="matrix" values="0 0 0 0 0 0 0 0 0 0 0 0 0 0 0 0 0 0 0.15 0"/>
<feBlend mode="normal" in2="BackgroundImageFix" result="effect1_dropShadow_53310_27665"/>
<feColorMatrix in="SourceAlpha" type="matrix" values="0 0 0 0 0 0 0 0 0 0 0 0 0 0 0 0 0 0 127 0" result="hardAlpha"/>
<feOffset dy="1"/>
<feGaussianBlur stdDeviation="1"/>
<feColorMatrix type="matrix" values="0 0 0 0 0 0 0 0 0 0 0 0 0 0 0 0 0 0 0.3 0"/>
<feBlend mode="normal" in2="effect1_dropShadow_53310_27665" result="effect2_dropShadow_53310_27665"/>
<feBlend mode="normal" in="SourceGraphic" in2="effect2_dropShadow_53310_27665" result="shape"/>
</filter>
<filter id="filter6_dd_53310_27665" x="127" y="114" width="98" height="60" filterUnits="userSpaceOnUse" color-interpolation-filters="sRGB">
<feFlood flood-opacity="0" result="BackgroundImageFix"/>
<feColorMatrix in="SourceAlpha" type="matrix" values="0 0 0 0 0 0 0 0 0 0 0 0 0 0 0 0 0 0 127 0" result="hardAlpha"/>
<feMorphology radius="1" operator="dilate" in="SourceAlpha" result="effect1_dropShadow_53310_27665"/>
<feOffset dy="1"/>
<feGaussianBlur stdDeviation="1.5"/>
<feColorMatrix type="matrix" values="0 0 0 0 0 0 0 0 0 0 0 0 0 0 0 0 0 0 0.15 0"/>
<feBlend mode="normal" in2="BackgroundImageFix" result="effect1_dropShadow_53310_27665"/>
<feColorMatrix in="SourceAlpha" type="matrix" values="0 0 0 0 0 0 0 0 0 0 0 0 0 0 0 0 0 0 127 0" result="hardAlpha"/>
<feOffset dy="1"/>
<feGaussianBlur stdDeviation="1"/>
<feColorMatrix type="matrix" values="0 0 0 0 0 0 0 0 0 0 0 0 0 0 0 0 0 0 0.3 0"/>
<feBlend mode="normal" in2="effect1_dropShadow_53310_27665" result="effect2_dropShadow_53310_27665"/>
<feBlend mode="normal" in="SourceGraphic" in2="effect2_dropShadow_53310_27665" result="shape"/>
</filter>
<filter id="filter7_dd_53310_27665" x="25" y="229" width="210" height="81" filterUnits="userSpaceOnUse" color-interpolation-filters="sRGB">
<feFlood flood-opacity="0" result="BackgroundImageFix"/>
<feColorMatrix in="SourceAlpha" type="matrix" values="0 0 0 0 0 0 0 0 0 0 0 0 0 0 0 0 0 0 127 0" result="hardAlpha"/>
<feMorphology radius="1" operator="dilate" in="SourceAlpha" result="effect1_dropShadow_53310_27665"/>
<feOffset dy="1"/>
<feGaussianBlur stdDeviation="1.5"/>
<feColorMatrix type="matrix" values="0 0 0 0 0 0 0 0 0 0 0 0 0 0 0 0 0 0 0.15 0"/>
<feBlend mode="normal" in2="BackgroundImageFix" result="effect1_dropShadow_53310_27665"/>
<feColorMatrix in="SourceAlpha" type="matrix" values="0 0 0 0 0 0 0 0 0 0 0 0 0 0 0 0 0 0 127 0" result="hardAlpha"/>
<feOffset dy="1"/>
<feGaussianBlur stdDeviation="1"/>
<feColorMatrix type="matrix" values="0 0 0 0 0 0 0 0 0 0 0 0 0 0 0 0 0 0 0.3 0"/>
<feBlend mode="normal" in2="effect1_dropShadow_53310_27665" result="effect2_dropShadow_53310_27665"/>
<feBlend mode="normal" in="SourceGraphic" in2="effect2_dropShadow_53310_27665" result="shape"/>
</filter>
<filter id="filter8_dd_53310_27665" x="37" y="239" width="98" height="60" filterUnits="userSpaceOnUse" color-interpolation-filters="sRGB">
<feFlood flood-opacity="0" result="BackgroundImageFix"/>
<feColorMatrix in="SourceAlpha" type="matrix" values="0 0 0 0 0 0 0 0 0 0 0 0 0 0 0 0 0 0 127 0" result="hardAlpha"/>
<feMorphology radius="1" operator="dilate" in="SourceAlpha" result="effect1_dropShadow_53310_27665"/>
<feOffset dy="1"/>
<feGaussianBlur stdDeviation="1.5"/>
<feColorMatrix type="matrix" values="0 0 0 0 0 0 0 0 0 0 0 0 0 0 0 0 0 0 0.15 0"/>
<feBlend mode="normal" in2="BackgroundImageFix" result="effect1_dropShadow_53310_27665"/>
<feColorMatrix in="SourceAlpha" type="matrix" values="0 0 0 0 0 0 0 0 0 0 0 0 0 0 0 0 0 0 127 0" result="hardAlpha"/>
<feOffset dy="1"/>
<feGaussianBlur stdDeviation="1"/>
<feColorMatrix type="matrix" values="0 0 0 0 0 0 0 0 0 0 0 0 0 0 0 0 0 0 0.3 0"/>
<feBlend mode="normal" in2="effect1_dropShadow_53310_27665" result="effect2_dropShadow_53310_27665"/>
<feBlend mode="normal" in="SourceGraphic" in2="effect2_dropShadow_53310_27665" result="shape"/>
</filter>
<filter id="filter9_dd_53310_27665" x="127" y="239" width="98" height="60" filterUnits="userSpaceOnUse" color-interpolation-filters="sRGB">
<feFlood flood-opacity="0" result="BackgroundImageFix"/>
<feColorMatrix in="SourceAlpha" type="matrix" values="0 0 0 0 0 0 0 0 0 0 0 0 0 0 0 0 0 0 127 0" result="hardAlpha"/>
<feMorphology radius="1" operator="dilate" in="SourceAlpha" result="effect1_dropShadow_53310_27665"/>
<feOffset dy="1"/>
<feGaussianBlur stdDeviation="1.5"/>
<feColorMatrix type="matrix" values="0 0 0 0 0 0 0 0 0 0 0 0 0 0 0 0 0 0 0.15 0"/>
<feBlend mode="normal" in2="BackgroundImageFix" result="effect1_dropShadow_53310_27665"/>
<feColorMatrix in="SourceAlpha" type="matrix" values="0 0 0 0 0 0 0 0 0 0 0 0 0 0 0 0 0 0 127 0" result="hardAlpha"/>
<feOffset dy="1"/>
<feGaussianBlur stdDeviation="1"/>
<feColorMatrix type="matrix" values="0 0 0 0 0 0 0 0 0 0 0 0 0 0 0 0 0 0 0.3 0"/>
<feBlend mode="normal" in2="effect1_dropShadow_53310_27665" result="effect2_dropShadow_53310_27665"/>
<feBlend mode="normal" in="SourceGraphic" in2="effect2_dropShadow_53310_27665" result="shape"/>
</filter>
<filter id="filter10_dd_53310_27665" x="265" y="113" width="98" height="60" filterUnits="userSpaceOnUse" color-interpolation-filters="sRGB">
<feFlood flood-opacity="0" result="BackgroundImageFix"/>
<feColorMatrix in="SourceAlpha" type="matrix" values="0 0 0 0 0 0 0 0 0 0 0 0 0 0 0 0 0 0 127 0" result="hardAlpha"/>
<feMorphology radius="1" operator="dilate" in="SourceAlpha" result="effect1_dropShadow_53310_27665"/>
<feOffset dy="1"/>
<feGaussianBlur stdDeviation="1.5"/>
<feColorMatrix type="matrix" values="0 0 0 0 0 0 0 0 0 0 0 0 0 0 0 0 0 0 0.15 0"/>
<feBlend mode="normal" in2="BackgroundImageFix" result="effect1_dropShadow_53310_27665"/>
<feColorMatrix in="SourceAlpha" type="matrix" values="0 0 0 0 0 0 0 0 0 0 0 0 0 0 0 0 0 0 127 0" result="hardAlpha"/>
<feOffset dy="1"/>
<feGaussianBlur stdDeviation="1"/>
<feColorMatrix type="matrix" values="0 0 0 0 0 0 0 0 0 0 0 0 0 0 0 0 0 0 0.3 0"/>
<feBlend mode="normal" in2="effect1_dropShadow_53310_27665" result="effect2_dropShadow_53310_27665"/>
<feBlend mode="normal" in="SourceGraphic" in2="effect2_dropShadow_53310_27665" result="shape"/>
</filter>
<clipPath id="clip0_53310_27665">
<rect width="404" height="328" rx="12" fill="white"/>
</clipPath>
<clipPath id="clip1_53310_27665">
<rect x="225" y="39" width="40" height="40" rx="20" fill="white"/>
</clipPath>
<clipPath id="clip2_53310_27665">
<rect x="225" y="123" width="40" height="40" rx="20" fill="white"/>
</clipPath>
<clipPath id="clip3_53310_27665">
<rect x="225" y="186" width="40" height="40" rx="20" fill="white"/>
</clipPath>
<clipPath id="clip4_53310_27665">
<rect x="41" y="242" width="90" height="52" rx="12" fill="white"/>
</clipPath>
<clipPath id="clip5_53310_27665">
<rect x="131" y="242" width="90" height="52" rx="12" fill="white"/>
</clipPath>
</defs>
</svg>
