<svg width="333" height="114" viewBox="0 0 333 114" fill="none" xmlns="http://www.w3.org/2000/svg">
<g clip-path="url(#clip0_53313_27875)">
<rect x="193" width="140" height="114" rx="12" fill="#FFFBFE"/>
<rect x="193" width="140" height="114" rx="12" fill="#6750A4" fill-opacity="0.05"/>
</g>
<g clip-path="url(#clip1_53313_27875)">
<rect width="160" height="114" rx="12" fill="#FFFBFE"/>
<rect width="160" height="114" rx="12" fill="#6750A4" fill-opacity="0.05"/>
</g>
<g filter="url(#filter0_dd_53313_27875)">
<g clip-path="url(#clip2_53313_27875)">
<rect x="213" y="42" width="100" height="44" rx="12" fill="#6750A4"/>
<path d="M227.715 67.3086L229.438 61.6602H230.949L228.406 68.9668C228.348 69.123 228.271 69.293 228.178 69.4766C228.084 69.6602 227.961 69.834 227.809 69.998C227.66 70.166 227.475 70.3008 227.252 70.4023C227.029 70.5078 226.76 70.5605 226.443 70.5605C226.318 70.5605 226.197 70.5488 226.08 70.5254C225.967 70.5059 225.859 70.4844 225.758 70.4609L225.752 69.3828C225.791 69.3867 225.838 69.3906 225.893 69.3945C225.951 69.3984 225.998 69.4004 226.033 69.4004C226.268 69.4004 226.463 69.3711 226.619 69.3125C226.775 69.2578 226.902 69.168 227 69.043C227.102 68.918 227.188 68.75 227.258 68.5391L227.715 67.3086ZM226.742 61.6602L228.248 66.4062L228.5 67.8945L227.521 68.1465L225.219 61.6602H226.742ZM231.895 64.9004V64.7656C231.895 64.3086 231.961 63.8848 232.094 63.4941C232.227 63.0996 232.418 62.7578 232.668 62.4688C232.922 62.1758 233.23 61.9492 233.594 61.7891C233.961 61.625 234.375 61.543 234.836 61.543C235.301 61.543 235.715 61.625 236.078 61.7891C236.445 61.9492 236.756 62.1758 237.01 62.4688C237.264 62.7578 237.457 63.0996 237.59 63.4941C237.723 63.8848 237.789 64.3086 237.789 64.7656V64.9004C237.789 65.3574 237.723 65.7812 237.59 66.1719C237.457 66.5625 237.264 66.9043 237.01 67.1973C236.756 67.4863 236.447 67.7129 236.084 67.877C235.721 68.0371 235.309 68.1172 234.848 68.1172C234.383 68.1172 233.967 68.0371 233.6 67.877C233.236 67.7129 232.928 67.4863 232.674 67.1973C232.42 66.9043 232.227 66.5625 232.094 66.1719C231.961 65.7812 231.895 65.3574 231.895 64.9004ZM233.307 64.7656V64.9004C233.307 65.1855 233.336 65.4551 233.395 65.709C233.453 65.9629 233.545 66.1855 233.67 66.377C233.795 66.5684 233.955 66.7188 234.15 66.8281C234.346 66.9375 234.578 66.9922 234.848 66.9922C235.109 66.9922 235.336 66.9375 235.527 66.8281C235.723 66.7188 235.883 66.5684 236.008 66.377C236.133 66.1855 236.225 65.9629 236.283 65.709C236.346 65.4551 236.377 65.1855 236.377 64.9004V64.7656C236.377 64.4844 236.346 64.2188 236.283 63.9688C236.225 63.7148 236.131 63.4902 236.002 63.2949C235.877 63.0996 235.717 62.9473 235.521 62.8379C235.33 62.7246 235.102 62.668 234.836 62.668C234.57 62.668 234.34 62.7246 234.145 62.8379C233.953 62.9473 233.795 63.0996 233.67 63.2949C233.545 63.4902 233.453 63.7148 233.395 63.9688C233.336 64.2188 233.307 64.4844 233.307 64.7656ZM243.287 66.5059V61.6602H244.705V68H243.369L243.287 66.5059ZM243.486 65.1875L243.961 65.1758C243.961 65.6016 243.914 65.9941 243.82 66.3535C243.727 66.709 243.582 67.0195 243.387 67.2852C243.191 67.5469 242.941 67.752 242.637 67.9004C242.332 68.0449 241.967 68.1172 241.541 68.1172C241.232 68.1172 240.949 68.0723 240.691 67.9824C240.434 67.8926 240.211 67.7539 240.023 67.5664C239.84 67.3789 239.697 67.1348 239.596 66.834C239.494 66.5332 239.443 66.1738 239.443 65.7559V61.6602H240.855V65.7676C240.855 65.998 240.883 66.1914 240.938 66.3477C240.992 66.5 241.066 66.623 241.16 66.7168C241.254 66.8105 241.363 66.877 241.488 66.916C241.613 66.9551 241.746 66.9746 241.887 66.9746C242.289 66.9746 242.605 66.8965 242.836 66.7402C243.07 66.5801 243.236 66.3652 243.334 66.0957C243.436 65.8262 243.486 65.5234 243.486 65.1875ZM248.07 62.8672V68H246.658V61.6602H248.006L248.07 62.8672ZM250.01 61.6191L249.998 62.9316C249.912 62.916 249.818 62.9043 249.717 62.8965C249.619 62.8887 249.521 62.8848 249.424 62.8848C249.182 62.8848 248.969 62.9199 248.785 62.9902C248.602 63.0566 248.447 63.1543 248.322 63.2832C248.201 63.4082 248.107 63.5605 248.041 63.7402C247.975 63.9199 247.936 64.1211 247.924 64.3438L247.602 64.3672C247.602 63.9688 247.641 63.5996 247.719 63.2598C247.797 62.9199 247.914 62.6211 248.07 62.3633C248.23 62.1055 248.43 61.9043 248.668 61.7598C248.91 61.6152 249.189 61.543 249.506 61.543C249.592 61.543 249.684 61.5508 249.781 61.5664C249.883 61.582 249.959 61.5996 250.01 61.6191ZM256.295 62.9492V68H254.883V61.6602H256.213L256.295 62.9492ZM256.066 64.5957L255.586 64.5898C255.586 64.1523 255.641 63.748 255.75 63.377C255.859 63.0059 256.02 62.6836 256.23 62.4102C256.441 62.1328 256.703 61.9199 257.016 61.7715C257.332 61.6191 257.697 61.543 258.111 61.543C258.4 61.543 258.664 61.5859 258.902 61.6719C259.145 61.7539 259.354 61.8848 259.529 62.0645C259.709 62.2441 259.846 62.4746 259.939 62.7559C260.037 63.0371 260.086 63.377 260.086 63.7754V68H258.674V63.8984C258.674 63.5898 258.627 63.3477 258.533 63.1719C258.443 62.9961 258.312 62.8711 258.141 62.7969C257.973 62.7188 257.771 62.6797 257.537 62.6797C257.271 62.6797 257.045 62.7305 256.857 62.832C256.674 62.9336 256.523 63.0723 256.406 63.248C256.289 63.4238 256.203 63.627 256.148 63.8574C256.094 64.0879 256.066 64.334 256.066 64.5957ZM259.998 64.2207L259.336 64.3672C259.336 63.9844 259.389 63.623 259.494 63.2832C259.604 62.9395 259.762 62.6387 259.969 62.3809C260.18 62.1191 260.439 61.9141 260.748 61.7656C261.057 61.6172 261.41 61.543 261.809 61.543C262.133 61.543 262.422 61.5879 262.676 61.6777C262.934 61.7637 263.152 61.9004 263.332 62.0879C263.512 62.2754 263.648 62.5195 263.742 62.8203C263.836 63.1172 263.883 63.4766 263.883 63.8984V68H262.465V63.8926C262.465 63.5723 262.418 63.3242 262.324 63.1484C262.234 62.9727 262.105 62.8516 261.938 62.7852C261.77 62.7148 261.568 62.6797 261.334 62.6797C261.115 62.6797 260.922 62.7207 260.754 62.8027C260.59 62.8809 260.451 62.9922 260.338 63.1367C260.225 63.2773 260.139 63.4395 260.08 63.623C260.025 63.8066 259.998 64.0059 259.998 64.2207ZM265.566 64.9004V64.7656C265.566 64.3086 265.633 63.8848 265.766 63.4941C265.898 63.0996 266.09 62.7578 266.34 62.4688C266.594 62.1758 266.902 61.9492 267.266 61.7891C267.633 61.625 268.047 61.543 268.508 61.543C268.973 61.543 269.387 61.625 269.75 61.7891C270.117 61.9492 270.428 62.1758 270.682 62.4688C270.936 62.7578 271.129 63.0996 271.262 63.4941C271.395 63.8848 271.461 64.3086 271.461 64.7656V64.9004C271.461 65.3574 271.395 65.7812 271.262 66.1719C271.129 66.5625 270.936 66.9043 270.682 67.1973C270.428 67.4863 270.119 67.7129 269.756 67.877C269.393 68.0371 268.98 68.1172 268.52 68.1172C268.055 68.1172 267.639 68.0371 267.271 67.877C266.908 67.7129 266.6 67.4863 266.346 67.1973C266.092 66.9043 265.898 66.5625 265.766 66.1719C265.633 65.7812 265.566 65.3574 265.566 64.9004ZM266.979 64.7656V64.9004C266.979 65.1855 267.008 65.4551 267.066 65.709C267.125 65.9629 267.217 66.1855 267.342 66.377C267.467 66.5684 267.627 66.7188 267.822 66.8281C268.018 66.9375 268.25 66.9922 268.52 66.9922C268.781 66.9922 269.008 66.9375 269.199 66.8281C269.395 66.7188 269.555 66.5684 269.68 66.377C269.805 66.1855 269.896 65.9629 269.955 65.709C270.018 65.4551 270.049 65.1855 270.049 64.9004V64.7656C270.049 64.4844 270.018 64.2188 269.955 63.9688C269.896 63.7148 269.803 63.4902 269.674 63.2949C269.549 63.0996 269.389 62.9473 269.193 62.8379C269.002 62.7246 268.773 62.668 268.508 62.668C268.242 62.668 268.012 62.7246 267.816 62.8379C267.625 62.9473 267.467 63.0996 267.342 63.2949C267.217 63.4902 267.125 63.7148 267.066 63.9688C267.008 64.2188 266.979 64.4844 266.979 64.7656ZM277.012 66.6875V59H278.43V68H277.146L277.012 66.6875ZM272.887 64.9004V64.7773C272.887 64.2969 272.943 63.8594 273.057 63.4648C273.17 63.0664 273.334 62.7246 273.549 62.4395C273.764 62.1504 274.025 61.9297 274.334 61.7773C274.643 61.6211 274.99 61.543 275.377 61.543C275.76 61.543 276.096 61.6172 276.385 61.7656C276.674 61.9141 276.92 62.127 277.123 62.4043C277.326 62.6777 277.488 63.0059 277.609 63.3887C277.73 63.7676 277.816 64.1895 277.867 64.6543V65.0469C277.816 65.5 277.73 65.9141 277.609 66.2891C277.488 66.6641 277.326 66.9883 277.123 67.2617C276.92 67.5352 276.672 67.7461 276.379 67.8945C276.09 68.043 275.752 68.1172 275.365 68.1172C274.982 68.1172 274.637 68.0371 274.328 67.877C274.023 67.7168 273.764 67.4922 273.549 67.2031C273.334 66.9141 273.17 66.5742 273.057 66.1836C272.943 65.7891 272.887 65.3613 272.887 64.9004ZM274.299 64.7773V64.9004C274.299 65.1895 274.324 65.459 274.375 65.709C274.43 65.959 274.514 66.1797 274.627 66.3711C274.74 66.5586 274.887 66.707 275.066 66.8164C275.25 66.9219 275.469 66.9746 275.723 66.9746C276.043 66.9746 276.307 66.9043 276.514 66.7637C276.721 66.623 276.883 66.4336 277 66.1953C277.121 65.9531 277.203 65.6836 277.246 65.3867V64.3262C277.223 64.0957 277.174 63.8809 277.1 63.6816C277.029 63.4824 276.934 63.3086 276.812 63.1602C276.691 63.0078 276.541 62.8906 276.361 62.8086C276.186 62.7227 275.977 62.6797 275.734 62.6797C275.477 62.6797 275.258 62.7344 275.078 62.8438C274.898 62.9531 274.75 63.1035 274.633 63.2949C274.52 63.4863 274.436 63.709 274.381 63.9629C274.326 64.2168 274.299 64.4883 274.299 64.7773ZM284.221 66.5059V61.6602H285.639V68H284.303L284.221 66.5059ZM284.42 65.1875L284.895 65.1758C284.895 65.6016 284.848 65.9941 284.754 66.3535C284.66 66.709 284.516 67.0195 284.32 67.2852C284.125 67.5469 283.875 67.752 283.57 67.9004C283.266 68.0449 282.9 68.1172 282.475 68.1172C282.166 68.1172 281.883 68.0723 281.625 67.9824C281.367 67.8926 281.145 67.7539 280.957 67.5664C280.773 67.3789 280.631 67.1348 280.529 66.834C280.428 66.5332 280.377 66.1738 280.377 65.7559V61.6602H281.789V65.7676C281.789 65.998 281.816 66.1914 281.871 66.3477C281.926 66.5 282 66.623 282.094 66.7168C282.188 66.8105 282.297 66.877 282.422 66.916C282.547 66.9551 282.68 66.9746 282.82 66.9746C283.223 66.9746 283.539 66.8965 283.77 66.7402C284.004 66.5801 284.17 66.3652 284.268 66.0957C284.369 65.8262 284.42 65.5234 284.42 65.1875ZM289.098 59V68H287.68V59H289.098ZM293.939 68.1172C293.471 68.1172 293.047 68.041 292.668 67.8887C292.293 67.7324 291.973 67.5156 291.707 67.2383C291.445 66.9609 291.244 66.6348 291.104 66.2598C290.963 65.8848 290.893 65.4805 290.893 65.0469V64.8125C290.893 64.3164 290.965 63.8672 291.109 63.4648C291.254 63.0625 291.455 62.7188 291.713 62.4336C291.971 62.1445 292.275 61.9238 292.627 61.7715C292.979 61.6191 293.359 61.543 293.77 61.543C294.223 61.543 294.619 61.6191 294.959 61.7715C295.299 61.9238 295.58 62.1387 295.803 62.416C296.029 62.6895 296.197 63.0156 296.307 63.3945C296.42 63.7734 296.477 64.1914 296.477 64.6484V65.252H291.578V64.2383H295.082V64.127C295.074 63.873 295.023 63.6348 294.93 63.4121C294.84 63.1895 294.701 63.0098 294.514 62.873C294.326 62.7363 294.076 62.668 293.764 62.668C293.529 62.668 293.32 62.7188 293.137 62.8203C292.957 62.918 292.807 63.0605 292.686 63.248C292.564 63.4355 292.471 63.6621 292.404 63.9277C292.342 64.1895 292.311 64.4844 292.311 64.8125V65.0469C292.311 65.3242 292.348 65.582 292.422 65.8203C292.5 66.0547 292.613 66.2598 292.762 66.4355C292.91 66.6113 293.09 66.75 293.301 66.8516C293.512 66.9492 293.752 66.998 294.021 66.998C294.361 66.998 294.664 66.9297 294.93 66.793C295.195 66.6562 295.426 66.4629 295.621 66.2129L296.365 66.9336C296.229 67.1328 296.051 67.3242 295.832 67.5078C295.613 67.6875 295.346 67.834 295.029 67.9473C294.717 68.0605 294.354 68.1172 293.939 68.1172Z" fill="white"/>
</g>
</g>
<path d="M140 64L145 66.8868V61.1132L140 64ZM213 63.5L144.5 63.5V64.5L213 64.5V63.5Z" fill="#CAC4D0"/>
<path d="M236.963 19.3086L238.686 13.6602H240.197L237.654 20.9668C237.596 21.123 237.52 21.293 237.426 21.4766C237.332 21.6602 237.209 21.834 237.057 21.998C236.908 22.166 236.723 22.3008 236.5 22.4023C236.277 22.5078 236.008 22.5605 235.691 22.5605C235.566 22.5605 235.445 22.5488 235.328 22.5254C235.215 22.5059 235.107 22.4844 235.006 22.4609L235 21.3828C235.039 21.3867 235.086 21.3906 235.141 21.3945C235.199 21.3984 235.246 21.4004 235.281 21.4004C235.516 21.4004 235.711 21.3711 235.867 21.3125C236.023 21.2578 236.15 21.168 236.248 21.043C236.35 20.918 236.436 20.75 236.506 20.5391L236.963 19.3086ZM235.99 13.6602L237.496 18.4062L237.748 19.8945L236.77 20.1465L234.467 13.6602H235.99ZM241.143 16.9004V16.7656C241.143 16.3086 241.209 15.8848 241.342 15.4941C241.475 15.0996 241.666 14.7578 241.916 14.4688C242.17 14.1758 242.479 13.9492 242.842 13.7891C243.209 13.625 243.623 13.543 244.084 13.543C244.549 13.543 244.963 13.625 245.326 13.7891C245.693 13.9492 246.004 14.1758 246.258 14.4688C246.512 14.7578 246.705 15.0996 246.838 15.4941C246.971 15.8848 247.037 16.3086 247.037 16.7656V16.9004C247.037 17.3574 246.971 17.7812 246.838 18.1719C246.705 18.5625 246.512 18.9043 246.258 19.1973C246.004 19.4863 245.695 19.7129 245.332 19.877C244.969 20.0371 244.557 20.1172 244.096 20.1172C243.631 20.1172 243.215 20.0371 242.848 19.877C242.484 19.7129 242.176 19.4863 241.922 19.1973C241.668 18.9043 241.475 18.5625 241.342 18.1719C241.209 17.7812 241.143 17.3574 241.143 16.9004ZM242.555 16.7656V16.9004C242.555 17.1855 242.584 17.4551 242.643 17.709C242.701 17.9629 242.793 18.1855 242.918 18.377C243.043 18.5684 243.203 18.7188 243.398 18.8281C243.594 18.9375 243.826 18.9922 244.096 18.9922C244.357 18.9922 244.584 18.9375 244.775 18.8281C244.971 18.7188 245.131 18.5684 245.256 18.377C245.381 18.1855 245.473 17.9629 245.531 17.709C245.594 17.4551 245.625 17.1855 245.625 16.9004V16.7656C245.625 16.4844 245.594 16.2188 245.531 15.9688C245.473 15.7148 245.379 15.4902 245.25 15.2949C245.125 15.0996 244.965 14.9473 244.77 14.8379C244.578 14.7246 244.35 14.668 244.084 14.668C243.818 14.668 243.588 14.7246 243.393 14.8379C243.201 14.9473 243.043 15.0996 242.918 15.2949C242.793 15.4902 242.701 15.7148 242.643 15.9688C242.584 16.2188 242.555 16.4844 242.555 16.7656ZM252.535 18.5059V13.6602H253.953V20H252.617L252.535 18.5059ZM252.734 17.1875L253.209 17.1758C253.209 17.6016 253.162 17.9941 253.068 18.3535C252.975 18.709 252.83 19.0195 252.635 19.2852C252.439 19.5469 252.189 19.752 251.885 19.9004C251.58 20.0449 251.215 20.1172 250.789 20.1172C250.48 20.1172 250.197 20.0723 249.939 19.9824C249.682 19.8926 249.459 19.7539 249.271 19.5664C249.088 19.3789 248.945 19.1348 248.844 18.834C248.742 18.5332 248.691 18.1738 248.691 17.7559V13.6602H250.104V17.7676C250.104 17.998 250.131 18.1914 250.186 18.3477C250.24 18.5 250.314 18.623 250.408 18.7168C250.502 18.8105 250.611 18.877 250.736 18.916C250.861 18.9551 250.994 18.9746 251.135 18.9746C251.537 18.9746 251.854 18.8965 252.084 18.7402C252.318 18.5801 252.484 18.3652 252.582 18.0957C252.684 17.8262 252.734 17.5234 252.734 17.1875ZM257.318 14.8672V20H255.906V13.6602H257.254L257.318 14.8672ZM259.258 13.6191L259.246 14.9316C259.16 14.916 259.066 14.9043 258.965 14.8965C258.867 14.8887 258.77 14.8848 258.672 14.8848C258.43 14.8848 258.217 14.9199 258.033 14.9902C257.85 15.0566 257.695 15.1543 257.57 15.2832C257.449 15.4082 257.355 15.5605 257.289 15.7402C257.223 15.9199 257.184 16.1211 257.172 16.3438L256.85 16.3672C256.85 15.9688 256.889 15.5996 256.967 15.2598C257.045 14.9199 257.162 14.6211 257.318 14.3633C257.479 14.1055 257.678 13.9043 257.916 13.7598C258.158 13.6152 258.438 13.543 258.754 13.543C258.84 13.543 258.932 13.5508 259.029 13.5664C259.131 13.582 259.207 13.5996 259.258 13.6191ZM266.721 18.9922C266.951 18.9922 267.158 18.9473 267.342 18.8574C267.529 18.7637 267.68 18.6348 267.793 18.4707C267.91 18.3066 267.975 18.1172 267.986 17.9023H269.316C269.309 18.3125 269.188 18.6855 268.953 19.0215C268.719 19.3574 268.408 19.625 268.021 19.8242C267.635 20.0195 267.207 20.1172 266.738 20.1172C266.254 20.1172 265.832 20.0352 265.473 19.8711C265.113 19.7031 264.814 19.4727 264.576 19.1797C264.338 18.8867 264.158 18.5488 264.037 18.166C263.92 17.7832 263.861 17.373 263.861 16.9355V16.7305C263.861 16.293 263.92 15.8828 264.037 15.5C264.158 15.1133 264.338 14.7734 264.576 14.4805C264.814 14.1875 265.113 13.959 265.473 13.7949C265.832 13.627 266.252 13.543 266.732 13.543C267.24 13.543 267.686 13.6445 268.068 13.8477C268.451 14.0469 268.752 14.3262 268.971 14.6855C269.193 15.041 269.309 15.4551 269.316 15.9277H267.986C267.975 15.6934 267.916 15.4824 267.811 15.2949C267.709 15.1035 267.564 14.9512 267.377 14.8379C267.193 14.7246 266.973 14.668 266.715 14.668C266.43 14.668 266.193 14.7266 266.006 14.8438C265.818 14.957 265.672 15.1133 265.566 15.3125C265.461 15.5078 265.385 15.7285 265.338 15.9746C265.295 16.2168 265.273 16.4688 265.273 16.7305V16.9355C265.273 17.1973 265.295 17.4512 265.338 17.6973C265.381 17.9434 265.455 18.1641 265.561 18.3594C265.67 18.5508 265.818 18.7051 266.006 18.8223C266.193 18.9355 266.432 18.9922 266.721 18.9922ZM272.318 14.8672V20H270.906V13.6602H272.254L272.318 14.8672ZM274.258 13.6191L274.246 14.9316C274.16 14.916 274.066 14.9043 273.965 14.8965C273.867 14.8887 273.77 14.8848 273.672 14.8848C273.43 14.8848 273.217 14.9199 273.033 14.9902C272.85 15.0566 272.695 15.1543 272.57 15.2832C272.449 15.4082 272.355 15.5605 272.289 15.7402C272.223 15.9199 272.184 16.1211 272.172 16.3438L271.85 16.3672C271.85 15.9688 271.889 15.5996 271.967 15.2598C272.045 14.9199 272.162 14.6211 272.318 14.3633C272.479 14.1055 272.678 13.9043 272.916 13.7598C273.158 13.6152 273.438 13.543 273.754 13.543C273.84 13.543 273.932 13.5508 274.029 13.5664C274.131 13.582 274.207 13.5996 274.258 13.6191ZM279.006 18.7285V15.7051C279.006 15.4785 278.965 15.2832 278.883 15.1191C278.801 14.9551 278.676 14.8281 278.508 14.7383C278.344 14.6484 278.137 14.6035 277.887 14.6035C277.656 14.6035 277.457 14.6426 277.289 14.7207C277.121 14.7988 276.99 14.9043 276.896 15.0371C276.803 15.1699 276.756 15.3203 276.756 15.4883H275.35C275.35 15.2383 275.41 14.9961 275.531 14.7617C275.652 14.5273 275.828 14.3184 276.059 14.1348C276.289 13.9512 276.564 13.8066 276.885 13.7012C277.205 13.5957 277.564 13.543 277.963 13.543C278.439 13.543 278.861 13.623 279.229 13.7832C279.6 13.9434 279.891 14.1855 280.102 14.5098C280.316 14.8301 280.424 15.2324 280.424 15.7168V18.5352C280.424 18.8242 280.443 19.084 280.482 19.3145C280.525 19.541 280.586 19.7383 280.664 19.9062V20H279.217C279.15 19.8477 279.098 19.6543 279.059 19.4199C279.023 19.1816 279.006 18.9512 279.006 18.7285ZM279.211 16.1445L279.223 17.0176H278.209C277.947 17.0176 277.717 17.043 277.518 17.0938C277.318 17.1406 277.152 17.2109 277.02 17.3047C276.887 17.3984 276.787 17.5117 276.721 17.6445C276.654 17.7773 276.621 17.9277 276.621 18.0957C276.621 18.2637 276.66 18.418 276.738 18.5586C276.816 18.6953 276.93 18.8027 277.078 18.8809C277.23 18.959 277.414 18.998 277.629 18.998C277.918 18.998 278.17 18.9395 278.385 18.8223C278.604 18.7012 278.775 18.5547 278.9 18.3828C279.025 18.207 279.092 18.041 279.1 17.8848L279.557 18.5117C279.51 18.6719 279.43 18.8438 279.316 19.0273C279.203 19.2109 279.055 19.3867 278.871 19.5547C278.691 19.7188 278.475 19.8535 278.221 19.959C277.971 20.0645 277.682 20.1172 277.354 20.1172C276.939 20.1172 276.57 20.0352 276.246 19.8711C275.922 19.7031 275.668 19.4785 275.484 19.1973C275.301 18.9121 275.209 18.5898 275.209 18.2305C275.209 17.8945 275.271 17.5977 275.396 17.3398C275.525 17.0781 275.713 16.8594 275.959 16.6836C276.209 16.5078 276.514 16.375 276.873 16.2852C277.232 16.1914 277.643 16.1445 278.104 16.1445H279.211ZM285.307 13.6602V14.6914H281.732V13.6602H285.307ZM282.764 12.1074H284.176V18.248C284.176 18.4434 284.203 18.5938 284.258 18.6992C284.316 18.8008 284.396 18.8691 284.498 18.9043C284.6 18.9395 284.719 18.957 284.855 18.957C284.953 18.957 285.047 18.9512 285.137 18.9395C285.227 18.9277 285.299 18.916 285.354 18.9043L285.359 19.9824C285.242 20.0176 285.105 20.0488 284.949 20.0762C284.797 20.1035 284.621 20.1172 284.422 20.1172C284.098 20.1172 283.811 20.0605 283.561 19.9473C283.311 19.8301 283.115 19.6406 282.975 19.3789C282.834 19.1172 282.764 18.7695 282.764 18.3359V12.1074ZM289.691 20.1172C289.223 20.1172 288.799 20.041 288.42 19.8887C288.045 19.7324 287.725 19.5156 287.459 19.2383C287.197 18.9609 286.996 18.6348 286.855 18.2598C286.715 17.8848 286.645 17.4805 286.645 17.0469V16.8125C286.645 16.3164 286.717 15.8672 286.861 15.4648C287.006 15.0625 287.207 14.7188 287.465 14.4336C287.723 14.1445 288.027 13.9238 288.379 13.7715C288.73 13.6191 289.111 13.543 289.521 13.543C289.975 13.543 290.371 13.6191 290.711 13.7715C291.051 13.9238 291.332 14.1387 291.555 14.416C291.781 14.6895 291.949 15.0156 292.059 15.3945C292.172 15.7734 292.229 16.1914 292.229 16.6484V17.252H287.33V16.2383H290.834V16.127C290.826 15.873 290.775 15.6348 290.682 15.4121C290.592 15.1895 290.453 15.0098 290.266 14.873C290.078 14.7363 289.828 14.668 289.516 14.668C289.281 14.668 289.072 14.7188 288.889 14.8203C288.709 14.918 288.559 15.0605 288.438 15.248C288.316 15.4355 288.223 15.6621 288.156 15.9277C288.094 16.1895 288.062 16.4844 288.062 16.8125V17.0469C288.062 17.3242 288.1 17.582 288.174 17.8203C288.252 18.0547 288.365 18.2598 288.514 18.4355C288.662 18.6113 288.842 18.75 289.053 18.8516C289.264 18.9492 289.504 18.998 289.773 18.998C290.113 18.998 290.416 18.9297 290.682 18.793C290.947 18.6562 291.178 18.4629 291.373 18.2129L292.117 18.9336C291.98 19.1328 291.803 19.3242 291.584 19.5078C291.365 19.6875 291.098 19.834 290.781 19.9473C290.469 20.0605 290.105 20.1172 289.691 20.1172Z" fill="#6750A4"/>
<g filter="url(#filter1_dd_53313_27875)">
<g clip-path="url(#clip3_53313_27875)">
<rect x="96" y="43" width="44" height="44" rx="12" fill="#6750A4"/>
<path d="M108.82 62.6602V63.6914H105.246V62.6602H108.82ZM106.277 61.1074H107.689V67.248C107.689 67.4434 107.717 67.5938 107.771 67.6992C107.83 67.8008 107.91 67.8691 108.012 67.9043C108.113 67.9395 108.232 67.957 108.369 67.957C108.467 67.957 108.561 67.9512 108.65 67.9395C108.74 67.9277 108.812 67.916 108.867 67.9043L108.873 68.9824C108.756 69.0176 108.619 69.0488 108.463 69.0762C108.311 69.1035 108.135 69.1172 107.936 69.1172C107.611 69.1172 107.324 69.0605 107.074 68.9473C106.824 68.8301 106.629 68.6406 106.488 68.3789C106.348 68.1172 106.277 67.7695 106.277 67.3359V61.1074ZM111.822 63.9492V69H110.41V62.6602H111.74L111.822 63.9492ZM111.594 65.5957L111.113 65.5898C111.113 65.1523 111.168 64.748 111.277 64.377C111.387 64.0059 111.547 63.6836 111.758 63.4102C111.969 63.1328 112.23 62.9199 112.543 62.7715C112.859 62.6191 113.225 62.543 113.639 62.543C113.928 62.543 114.191 62.5859 114.43 62.6719C114.672 62.7539 114.881 62.8848 115.057 63.0645C115.236 63.2441 115.373 63.4746 115.467 63.7559C115.564 64.0371 115.613 64.377 115.613 64.7754V69H114.201V64.8984C114.201 64.5898 114.154 64.3477 114.061 64.1719C113.971 63.9961 113.84 63.8711 113.668 63.7969C113.5 63.7188 113.299 63.6797 113.064 63.6797C112.799 63.6797 112.572 63.7305 112.385 63.832C112.201 63.9336 112.051 64.0723 111.934 64.248C111.816 64.4238 111.73 64.627 111.676 64.8574C111.621 65.0879 111.594 65.334 111.594 65.5957ZM115.525 65.2207L114.863 65.3672C114.863 64.9844 114.916 64.623 115.021 64.2832C115.131 63.9395 115.289 63.6387 115.496 63.3809C115.707 63.1191 115.967 62.9141 116.275 62.7656C116.584 62.6172 116.938 62.543 117.336 62.543C117.66 62.543 117.949 62.5879 118.203 62.6777C118.461 62.7637 118.68 62.9004 118.859 63.0879C119.039 63.2754 119.176 63.5195 119.27 63.8203C119.363 64.1172 119.41 64.4766 119.41 64.8984V69H117.992V64.8926C117.992 64.5723 117.945 64.3242 117.852 64.1484C117.762 63.9727 117.633 63.8516 117.465 63.7852C117.297 63.7148 117.096 63.6797 116.861 63.6797C116.643 63.6797 116.449 63.7207 116.281 63.8027C116.117 63.8809 115.979 63.9922 115.865 64.1367C115.752 64.2773 115.666 64.4395 115.607 64.623C115.553 64.8066 115.525 65.0059 115.525 65.2207ZM124.92 67.2832C124.92 67.1426 124.885 67.0156 124.814 66.9023C124.744 66.7852 124.609 66.6797 124.41 66.5859C124.215 66.4922 123.926 66.4062 123.543 66.3281C123.207 66.2539 122.898 66.166 122.617 66.0645C122.34 65.959 122.102 65.832 121.902 65.6836C121.703 65.5352 121.549 65.3594 121.439 65.1562C121.33 64.9531 121.275 64.7188 121.275 64.4531C121.275 64.1953 121.332 63.9512 121.445 63.7207C121.559 63.4902 121.721 63.2871 121.932 63.1113C122.143 62.9355 122.398 62.7969 122.699 62.6953C123.004 62.5938 123.344 62.543 123.719 62.543C124.25 62.543 124.705 62.6328 125.084 62.8125C125.467 62.9883 125.76 63.2285 125.963 63.5332C126.166 63.834 126.268 64.1738 126.268 64.5527H124.855C124.855 64.3848 124.812 64.2285 124.727 64.084C124.645 63.9355 124.52 63.8164 124.352 63.7266C124.184 63.6328 123.973 63.5859 123.719 63.5859C123.477 63.5859 123.275 63.625 123.115 63.7031C122.959 63.7773 122.842 63.875 122.764 63.9961C122.689 64.1172 122.652 64.25 122.652 64.3945C122.652 64.5 122.672 64.5957 122.711 64.6816C122.754 64.7637 122.824 64.8398 122.922 64.9102C123.02 64.9766 123.152 65.0391 123.32 65.0977C123.492 65.1562 123.707 65.2129 123.965 65.2676C124.449 65.3691 124.865 65.5 125.213 65.6602C125.564 65.8164 125.834 66.0195 126.021 66.2695C126.209 66.5156 126.303 66.8281 126.303 67.207C126.303 67.4883 126.242 67.7461 126.121 67.9805C126.004 68.2109 125.832 68.4121 125.605 68.584C125.379 68.752 125.107 68.8828 124.791 68.9766C124.479 69.0703 124.127 69.1172 123.736 69.1172C123.162 69.1172 122.676 69.0156 122.277 68.8125C121.879 68.6055 121.576 68.3418 121.369 68.0215C121.166 67.6973 121.064 67.3613 121.064 67.0137H122.43C122.445 67.2754 122.518 67.4844 122.646 67.6406C122.779 67.793 122.943 67.9043 123.139 67.9746C123.338 68.041 123.543 68.0742 123.754 68.0742C124.008 68.0742 124.221 68.041 124.393 67.9746C124.564 67.9043 124.695 67.8105 124.785 67.6934C124.875 67.5723 124.92 67.4355 124.92 67.2832Z" fill="white"/>
</g>
</g>
<g filter="url(#filter2_dd_53313_27875)">
<g clip-path="url(#clip4_53313_27875)">
<rect x="19" y="43" width="44" height="44" rx="12" fill="#6750A4"/>
<path d="M30.1562 63.9492V69H28.7441V62.6602H30.0742L30.1562 63.9492ZM29.9277 65.5957L29.4473 65.5898C29.4473 65.1523 29.502 64.748 29.6113 64.377C29.7207 64.0059 29.8809 63.6836 30.0918 63.4102C30.3027 63.1328 30.5645 62.9199 30.877 62.7715C31.1934 62.6191 31.5586 62.543 31.9727 62.543C32.2617 62.543 32.5254 62.5859 32.7637 62.6719C33.0059 62.7539 33.2148 62.8848 33.3906 63.0645C33.5703 63.2441 33.707 63.4746 33.8008 63.7559C33.8984 64.0371 33.9473 64.377 33.9473 64.7754V69H32.5352V64.8984C32.5352 64.5898 32.4883 64.3477 32.3945 64.1719C32.3047 63.9961 32.1738 63.8711 32.002 63.7969C31.834 63.7188 31.6328 63.6797 31.3984 63.6797C31.1328 63.6797 30.9062 63.7305 30.7188 63.832C30.5352 63.9336 30.3848 64.0723 30.2676 64.248C30.1504 64.4238 30.0645 64.627 30.0098 64.8574C29.9551 65.0879 29.9277 65.334 29.9277 65.5957ZM33.8594 65.2207L33.1973 65.3672C33.1973 64.9844 33.25 64.623 33.3555 64.2832C33.4648 63.9395 33.623 63.6387 33.8301 63.3809C34.041 63.1191 34.3008 62.9141 34.6094 62.7656C34.918 62.6172 35.2715 62.543 35.6699 62.543C35.9941 62.543 36.2832 62.5879 36.5371 62.6777C36.7949 62.7637 37.0137 62.9004 37.1934 63.0879C37.373 63.2754 37.5098 63.5195 37.6035 63.8203C37.6973 64.1172 37.7441 64.4766 37.7441 64.8984V69H36.3262V64.8926C36.3262 64.5723 36.2793 64.3242 36.1855 64.1484C36.0957 63.9727 35.9668 63.8516 35.7988 63.7852C35.6309 63.7148 35.4297 63.6797 35.1953 63.6797C34.9766 63.6797 34.7832 63.7207 34.6152 63.8027C34.4512 63.8809 34.3125 63.9922 34.1992 64.1367C34.0859 64.2773 34 64.4395 33.9414 64.623C33.8867 64.8066 33.8594 65.0059 33.8594 65.2207ZM42.2871 67.9922C42.5176 67.9922 42.7246 67.9473 42.9082 67.8574C43.0957 67.7637 43.2461 67.6348 43.3594 67.4707C43.4766 67.3066 43.541 67.1172 43.5527 66.9023H44.8828C44.875 67.3125 44.7539 67.6855 44.5195 68.0215C44.2852 68.3574 43.9746 68.625 43.5879 68.8242C43.2012 69.0195 42.7734 69.1172 42.3047 69.1172C41.8203 69.1172 41.3984 69.0352 41.0391 68.8711C40.6797 68.7031 40.3809 68.4727 40.1426 68.1797C39.9043 67.8867 39.7246 67.5488 39.6035 67.166C39.4863 66.7832 39.4277 66.373 39.4277 65.9355V65.7305C39.4277 65.293 39.4863 64.8828 39.6035 64.5C39.7246 64.1133 39.9043 63.7734 40.1426 63.4805C40.3809 63.1875 40.6797 62.959 41.0391 62.7949C41.3984 62.627 41.8184 62.543 42.2988 62.543C42.8066 62.543 43.252 62.6445 43.6348 62.8477C44.0176 63.0469 44.3184 63.3262 44.5371 63.6855C44.7598 64.041 44.875 64.4551 44.8828 64.9277H43.5527C43.541 64.6934 43.4824 64.4824 43.377 64.2949C43.2754 64.1035 43.1309 63.9512 42.9434 63.8379C42.7598 63.7246 42.5391 63.668 42.2812 63.668C41.9961 63.668 41.7598 63.7266 41.5723 63.8438C41.3848 63.957 41.2383 64.1133 41.1328 64.3125C41.0273 64.5078 40.9512 64.7285 40.9043 64.9746C40.8613 65.2168 40.8398 65.4688 40.8398 65.7305V65.9355C40.8398 66.1973 40.8613 66.4512 40.9043 66.6973C40.9473 66.9434 41.0215 67.1641 41.127 67.3594C41.2363 67.5508 41.3848 67.7051 41.5723 67.8223C41.7598 67.9355 41.998 67.9922 42.2871 67.9922ZM47.8848 63.8672V69H46.4727V62.6602H47.8203L47.8848 63.8672ZM49.8242 62.6191L49.8125 63.9316C49.7266 63.916 49.6328 63.9043 49.5312 63.8965C49.4336 63.8887 49.3359 63.8848 49.2383 63.8848C48.9961 63.8848 48.7832 63.9199 48.5996 63.9902C48.416 64.0566 48.2617 64.1543 48.1367 64.2832C48.0156 64.4082 47.9219 64.5605 47.8555 64.7402C47.7891 64.9199 47.75 65.1211 47.7383 65.3438L47.416 65.3672C47.416 64.9688 47.4551 64.5996 47.5332 64.2598C47.6113 63.9199 47.7285 63.6211 47.8848 63.3633C48.0449 63.1055 48.2441 62.9043 48.4824 62.7598C48.7246 62.6152 49.0039 62.543 49.3203 62.543C49.4062 62.543 49.498 62.5508 49.5957 62.5664C49.6973 62.582 49.7734 62.5996 49.8242 62.6191Z" fill="white"/>
</g>
</g>
<path d="M96 64L91 61.1132V66.8868L96 64ZM63 64.5H91.5V63.5H63V64.5Z" fill="#CAC4D0"/>
<path d="M56.7266 13.6602V14.6914H53.1523V13.6602H56.7266ZM54.1836 12.1074H55.5957V18.248C55.5957 18.4434 55.623 18.5938 55.6777 18.6992C55.7363 18.8008 55.8164 18.8691 55.918 18.9043C56.0195 18.9395 56.1387 18.957 56.2754 18.957C56.373 18.957 56.4668 18.9512 56.5566 18.9395C56.6465 18.9277 56.7188 18.916 56.7734 18.9043L56.7793 19.9824C56.6621 20.0176 56.5254 20.0488 56.3691 20.0762C56.2168 20.1035 56.041 20.1172 55.8418 20.1172C55.5176 20.1172 55.2305 20.0605 54.9805 19.9473C54.7305 19.8301 54.5352 19.6406 54.3945 19.3789C54.2539 19.1172 54.1836 18.7695 54.1836 18.3359V12.1074ZM59.7285 14.9492V20H58.3164V13.6602H59.6465L59.7285 14.9492ZM59.5 16.5957L59.0195 16.5898C59.0195 16.1523 59.0742 15.748 59.1836 15.377C59.293 15.0059 59.4531 14.6836 59.6641 14.4102C59.875 14.1328 60.1367 13.9199 60.4492 13.7715C60.7656 13.6191 61.1309 13.543 61.5449 13.543C61.834 13.543 62.0977 13.5859 62.3359 13.6719C62.5781 13.7539 62.7871 13.8848 62.9629 14.0645C63.1426 14.2441 63.2793 14.4746 63.373 14.7559C63.4707 15.0371 63.5195 15.377 63.5195 15.7754V20H62.1074V15.8984C62.1074 15.5898 62.0605 15.3477 61.9668 15.1719C61.877 14.9961 61.7461 14.8711 61.5742 14.7969C61.4062 14.7188 61.2051 14.6797 60.9707 14.6797C60.7051 14.6797 60.4785 14.7305 60.291 14.832C60.1074 14.9336 59.957 15.0723 59.8398 15.248C59.7227 15.4238 59.6367 15.627 59.582 15.8574C59.5273 16.0879 59.5 16.334 59.5 16.5957ZM63.4316 16.2207L62.7695 16.3672C62.7695 15.9844 62.8223 15.623 62.9277 15.2832C63.0371 14.9395 63.1953 14.6387 63.4023 14.3809C63.6133 14.1191 63.873 13.9141 64.1816 13.7656C64.4902 13.6172 64.8438 13.543 65.2422 13.543C65.5664 13.543 65.8555 13.5879 66.1094 13.6777C66.3672 13.7637 66.5859 13.9004 66.7656 14.0879C66.9453 14.2754 67.082 14.5195 67.1758 14.8203C67.2695 15.1172 67.3164 15.4766 67.3164 15.8984V20H65.8984V15.8926C65.8984 15.5723 65.8516 15.3242 65.7578 15.1484C65.668 14.9727 65.5391 14.8516 65.3711 14.7852C65.2031 14.7148 65.002 14.6797 64.7676 14.6797C64.5488 14.6797 64.3555 14.7207 64.1875 14.8027C64.0234 14.8809 63.8848 14.9922 63.7715 15.1367C63.6582 15.2773 63.5723 15.4395 63.5137 15.623C63.459 15.8066 63.4316 16.0059 63.4316 16.2207ZM72.8262 18.2832C72.8262 18.1426 72.791 18.0156 72.7207 17.9023C72.6504 17.7852 72.5156 17.6797 72.3164 17.5859C72.1211 17.4922 71.832 17.4062 71.4492 17.3281C71.1133 17.2539 70.8047 17.166 70.5234 17.0645C70.2461 16.959 70.0078 16.832 69.8086 16.6836C69.6094 16.5352 69.4551 16.3594 69.3457 16.1562C69.2363 15.9531 69.1816 15.7188 69.1816 15.4531C69.1816 15.1953 69.2383 14.9512 69.3516 14.7207C69.4648 14.4902 69.627 14.2871 69.8379 14.1113C70.0488 13.9355 70.3047 13.7969 70.6055 13.6953C70.9102 13.5938 71.25 13.543 71.625 13.543C72.1562 13.543 72.6113 13.6328 72.9902 13.8125C73.373 13.9883 73.666 14.2285 73.8691 14.5332C74.0723 14.834 74.1738 15.1738 74.1738 15.5527H72.7617C72.7617 15.3848 72.7188 15.2285 72.6328 15.084C72.5508 14.9355 72.4258 14.8164 72.2578 14.7266C72.0898 14.6328 71.8789 14.5859 71.625 14.5859C71.3828 14.5859 71.1816 14.625 71.0215 14.7031C70.8652 14.7773 70.748 14.875 70.6699 14.9961C70.5957 15.1172 70.5586 15.25 70.5586 15.3945C70.5586 15.5 70.5781 15.5957 70.6172 15.6816C70.6602 15.7637 70.7305 15.8398 70.8281 15.9102C70.9258 15.9766 71.0586 16.0391 71.2266 16.0977C71.3984 16.1562 71.6133 16.2129 71.8711 16.2676C72.3555 16.3691 72.7715 16.5 73.1191 16.6602C73.4707 16.8164 73.7402 17.0195 73.9277 17.2695C74.1152 17.5156 74.209 17.8281 74.209 18.207C74.209 18.4883 74.1484 18.7461 74.0273 18.9805C73.9102 19.2109 73.7383 19.4121 73.5117 19.584C73.2852 19.752 73.0137 19.8828 72.6973 19.9766C72.3848 20.0703 72.0332 20.1172 71.6426 20.1172C71.0684 20.1172 70.582 20.0156 70.1836 19.8125C69.7852 19.6055 69.4824 19.3418 69.2754 19.0215C69.0723 18.6973 68.9707 18.3613 68.9707 18.0137H70.3359C70.3516 18.2754 70.4238 18.4844 70.5527 18.6406C70.6855 18.793 70.8496 18.9043 71.0449 18.9746C71.2441 19.041 71.4492 19.0742 71.6602 19.0742C71.9141 19.0742 72.127 19.041 72.2988 18.9746C72.4707 18.9043 72.6016 18.8105 72.6914 18.6934C72.7812 18.5723 72.8262 18.4355 72.8262 18.2832ZM82.0234 18.9922C82.2539 18.9922 82.4609 18.9473 82.6445 18.8574C82.832 18.7637 82.9824 18.6348 83.0957 18.4707C83.2129 18.3066 83.2773 18.1172 83.2891 17.9023H84.6191C84.6113 18.3125 84.4902 18.6855 84.2559 19.0215C84.0215 19.3574 83.7109 19.625 83.3242 19.8242C82.9375 20.0195 82.5098 20.1172 82.041 20.1172C81.5566 20.1172 81.1348 20.0352 80.7754 19.8711C80.416 19.7031 80.1172 19.4727 79.8789 19.1797C79.6406 18.8867 79.4609 18.5488 79.3398 18.166C79.2227 17.7832 79.1641 17.373 79.1641 16.9355V16.7305C79.1641 16.293 79.2227 15.8828 79.3398 15.5C79.4609 15.1133 79.6406 14.7734 79.8789 14.4805C80.1172 14.1875 80.416 13.959 80.7754 13.7949C81.1348 13.627 81.5547 13.543 82.0352 13.543C82.543 13.543 82.9883 13.6445 83.3711 13.8477C83.7539 14.0469 84.0547 14.3262 84.2734 14.6855C84.4961 15.041 84.6113 15.4551 84.6191 15.9277H83.2891C83.2773 15.6934 83.2188 15.4824 83.1133 15.2949C83.0117 15.1035 82.8672 14.9512 82.6797 14.8379C82.4961 14.7246 82.2754 14.668 82.0176 14.668C81.7324 14.668 81.4961 14.7266 81.3086 14.8438C81.1211 14.957 80.9746 15.1133 80.8691 15.3125C80.7637 15.5078 80.6875 15.7285 80.6406 15.9746C80.5977 16.2168 80.5762 16.4688 80.5762 16.7305V16.9355C80.5762 17.1973 80.5977 17.4512 80.6406 17.6973C80.6836 17.9434 80.7578 18.1641 80.8633 18.3594C80.9727 18.5508 81.1211 18.7051 81.3086 18.8223C81.4961 18.9355 81.7344 18.9922 82.0234 18.9922ZM87.6211 14.8672V20H86.209V13.6602H87.5566L87.6211 14.8672ZM89.5605 13.6191L89.5488 14.9316C89.4629 14.916 89.3691 14.9043 89.2676 14.8965C89.1699 14.8887 89.0723 14.8848 88.9746 14.8848C88.7324 14.8848 88.5195 14.9199 88.3359 14.9902C88.1523 15.0566 87.998 15.1543 87.873 15.2832C87.752 15.4082 87.6582 15.5605 87.5918 15.7402C87.5254 15.9199 87.4863 16.1211 87.4746 16.3438L87.1523 16.3672C87.1523 15.9688 87.1914 15.5996 87.2695 15.2598C87.3477 14.9199 87.4648 14.6211 87.6211 14.3633C87.7812 14.1055 87.9805 13.9043 88.2188 13.7598C88.4609 13.6152 88.7402 13.543 89.0566 13.543C89.1426 13.543 89.2344 13.5508 89.332 13.5664C89.4336 13.582 89.5098 13.5996 89.5605 13.6191ZM94.3086 18.7285V15.7051C94.3086 15.4785 94.2676 15.2832 94.1855 15.1191C94.1035 14.9551 93.9785 14.8281 93.8105 14.7383C93.6465 14.6484 93.4395 14.6035 93.1895 14.6035C92.959 14.6035 92.7598 14.6426 92.5918 14.7207C92.4238 14.7988 92.293 14.9043 92.1992 15.0371C92.1055 15.1699 92.0586 15.3203 92.0586 15.4883H90.6523C90.6523 15.2383 90.7129 14.9961 90.834 14.7617C90.9551 14.5273 91.1309 14.3184 91.3613 14.1348C91.5918 13.9512 91.8672 13.8066 92.1875 13.7012C92.5078 13.5957 92.8672 13.543 93.2656 13.543C93.7422 13.543 94.1641 13.623 94.5312 13.7832C94.9023 13.9434 95.1934 14.1855 95.4043 14.5098C95.6191 14.8301 95.7266 15.2324 95.7266 15.7168V18.5352C95.7266 18.8242 95.7461 19.084 95.7852 19.3145C95.8281 19.541 95.8887 19.7383 95.9668 19.9062V20H94.5195C94.4531 19.8477 94.4004 19.6543 94.3613 19.4199C94.3262 19.1816 94.3086 18.9512 94.3086 18.7285ZM94.5137 16.1445L94.5254 17.0176H93.5117C93.25 17.0176 93.0195 17.043 92.8203 17.0938C92.6211 17.1406 92.4551 17.2109 92.3223 17.3047C92.1895 17.3984 92.0898 17.5117 92.0234 17.6445C91.957 17.7773 91.9238 17.9277 91.9238 18.0957C91.9238 18.2637 91.9629 18.418 92.041 18.5586C92.1191 18.6953 92.2324 18.8027 92.3809 18.8809C92.5332 18.959 92.7168 18.998 92.9316 18.998C93.2207 18.998 93.4727 18.9395 93.6875 18.8223C93.9062 18.7012 94.0781 18.5547 94.2031 18.3828C94.3281 18.207 94.3945 18.041 94.4023 17.8848L94.8594 18.5117C94.8125 18.6719 94.7324 18.8438 94.6191 19.0273C94.5059 19.2109 94.3574 19.3867 94.1738 19.5547C93.9941 19.7188 93.7773 19.8535 93.5234 19.959C93.2734 20.0645 92.9844 20.1172 92.6562 20.1172C92.2422 20.1172 91.873 20.0352 91.5488 19.8711C91.2246 19.7031 90.9707 19.4785 90.7871 19.1973C90.6035 18.9121 90.5117 18.5898 90.5117 18.2305C90.5117 17.8945 90.5742 17.5977 90.6992 17.3398C90.8281 17.0781 91.0156 16.8594 91.2617 16.6836C91.5117 16.5078 91.8164 16.375 92.1758 16.2852C92.5352 16.1914 92.9453 16.1445 93.4062 16.1445H94.5137ZM100.609 13.6602V14.6914H97.0352V13.6602H100.609ZM98.0664 12.1074H99.4785V18.248C99.4785 18.4434 99.5059 18.5938 99.5605 18.6992C99.6191 18.8008 99.6992 18.8691 99.8008 18.9043C99.9023 18.9395 100.021 18.957 100.158 18.957C100.256 18.957 100.35 18.9512 100.439 18.9395C100.529 18.9277 100.602 18.916 100.656 18.9043L100.662 19.9824C100.545 20.0176 100.408 20.0488 100.252 20.0762C100.1 20.1035 99.9238 20.1172 99.7246 20.1172C99.4004 20.1172 99.1133 20.0605 98.8633 19.9473C98.6133 19.8301 98.418 19.6406 98.2773 19.3789C98.1367 19.1172 98.0664 18.7695 98.0664 18.3359V12.1074ZM104.994 20.1172C104.525 20.1172 104.102 20.041 103.723 19.8887C103.348 19.7324 103.027 19.5156 102.762 19.2383C102.5 18.9609 102.299 18.6348 102.158 18.2598C102.018 17.8848 101.947 17.4805 101.947 17.0469V16.8125C101.947 16.3164 102.02 15.8672 102.164 15.4648C102.309 15.0625 102.51 14.7188 102.768 14.4336C103.025 14.1445 103.33 13.9238 103.682 13.7715C104.033 13.6191 104.414 13.543 104.824 13.543C105.277 13.543 105.674 13.6191 106.014 13.7715C106.354 13.9238 106.635 14.1387 106.857 14.416C107.084 14.6895 107.252 15.0156 107.361 15.3945C107.475 15.7734 107.531 16.1914 107.531 16.6484V17.252H102.633V16.2383H106.137V16.127C106.129 15.873 106.078 15.6348 105.984 15.4121C105.895 15.1895 105.756 15.0098 105.568 14.873C105.381 14.7363 105.131 14.668 104.818 14.668C104.584 14.668 104.375 14.7188 104.191 14.8203C104.012 14.918 103.861 15.0605 103.74 15.248C103.619 15.4355 103.525 15.6621 103.459 15.9277C103.396 16.1895 103.365 16.4844 103.365 16.8125V17.0469C103.365 17.3242 103.402 17.582 103.477 17.8203C103.555 18.0547 103.668 18.2598 103.816 18.4355C103.965 18.6113 104.145 18.75 104.355 18.8516C104.566 18.9492 104.807 18.998 105.076 18.998C105.416 18.998 105.719 18.9297 105.984 18.793C106.25 18.6562 106.48 18.4629 106.676 18.2129L107.42 18.9336C107.283 19.1328 107.105 19.3242 106.887 19.5078C106.668 19.6875 106.4 19.834 106.084 19.9473C105.771 20.0605 105.408 20.1172 104.994 20.1172Z" fill="#6750A4"/>
<defs>
<filter id="filter0_dd_53313_27875" x="209" y="39" width="108" height="52" filterUnits="userSpaceOnUse" color-interpolation-filters="sRGB">
<feFlood flood-opacity="0" result="BackgroundImageFix"/>
<feColorMatrix in="SourceAlpha" type="matrix" values="0 0 0 0 0 0 0 0 0 0 0 0 0 0 0 0 0 0 127 0" result="hardAlpha"/>
<feMorphology radius="1" operator="dilate" in="SourceAlpha" result="effect1_dropShadow_53313_27875"/>
<feOffset dy="1"/>
<feGaussianBlur stdDeviation="1.5"/>
<feColorMatrix type="matrix" values="0 0 0 0 0 0 0 0 0 0 0 0 0 0 0 0 0 0 0.15 0"/>
<feBlend mode="normal" in2="BackgroundImageFix" result="effect1_dropShadow_53313_27875"/>
<feColorMatrix in="SourceAlpha" type="matrix" values="0 0 0 0 0 0 0 0 0 0 0 0 0 0 0 0 0 0 127 0" result="hardAlpha"/>
<feOffset dy="1"/>
<feGaussianBlur stdDeviation="1"/>
<feColorMatrix type="matrix" values="0 0 0 0 0 0 0 0 0 0 0 0 0 0 0 0 0 0 0.3 0"/>
<feBlend mode="normal" in2="effect1_dropShadow_53313_27875" result="effect2_dropShadow_53313_27875"/>
<feBlend mode="normal" in="SourceGraphic" in2="effect2_dropShadow_53313_27875" result="shape"/>
</filter>
<filter id="filter1_dd_53313_27875" x="92" y="40" width="52" height="52" filterUnits="userSpaceOnUse" color-interpolation-filters="sRGB">
<feFlood flood-opacity="0" result="BackgroundImageFix"/>
<feColorMatrix in="SourceAlpha" type="matrix" values="0 0 0 0 0 0 0 0 0 0 0 0 0 0 0 0 0 0 127 0" result="hardAlpha"/>
<feMorphology radius="1" operator="dilate" in="SourceAlpha" result="effect1_dropShadow_53313_27875"/>
<feOffset dy="1"/>
<feGaussianBlur stdDeviation="1.5"/>
<feColorMatrix type="matrix" values="0 0 0 0 0 0 0 0 0 0 0 0 0 0 0 0 0 0 0.15 0"/>
<feBlend mode="normal" in2="BackgroundImageFix" result="effect1_dropShadow_53313_27875"/>
<feColorMatrix in="SourceAlpha" type="matrix" values="0 0 0 0 0 0 0 0 0 0 0 0 0 0 0 0 0 0 127 0" result="hardAlpha"/>
<feOffset dy="1"/>
<feGaussianBlur stdDeviation="1"/>
<feColorMatrix type="matrix" values="0 0 0 0 0 0 0 0 0 0 0 0 0 0 0 0 0 0 0.3 0"/>
<feBlend mode="normal" in2="effect1_dropShadow_53313_27875" result="effect2_dropShadow_53313_27875"/>
<feBlend mode="normal" in="SourceGraphic" in2="effect2_dropShadow_53313_27875" result="shape"/>
</filter>
<filter id="filter2_dd_53313_27875" x="15" y="40" width="52" height="52" filterUnits="userSpaceOnUse" color-interpolation-filters="sRGB">
<feFlood flood-opacity="0" result="BackgroundImageFix"/>
<feColorMatrix in="SourceAlpha" type="matrix" values="0 0 0 0 0 0 0 0 0 0 0 0 0 0 0 0 0 0 127 0" result="hardAlpha"/>
<feMorphology radius="1" operator="dilate" in="SourceAlpha" result="effect1_dropShadow_53313_27875"/>
<feOffset dy="1"/>
<feGaussianBlur stdDeviation="1.5"/>
<feColorMatrix type="matrix" values="0 0 0 0 0 0 0 0 0 0 0 0 0 0 0 0 0 0 0.15 0"/>
<feBlend mode="normal" in2="BackgroundImageFix" result="effect1_dropShadow_53313_27875"/>
<feColorMatrix in="SourceAlpha" type="matrix" values="0 0 0 0 0 0 0 0 0 0 0 0 0 0 0 0 0 0 127 0" result="hardAlpha"/>
<feOffset dy="1"/>
<feGaussianBlur stdDeviation="1"/>
<feColorMatrix type="matrix" values="0 0 0 0 0 0 0 0 0 0 0 0 0 0 0 0 0 0 0.3 0"/>
<feBlend mode="normal" in2="effect1_dropShadow_53313_27875" result="effect2_dropShadow_53313_27875"/>
<feBlend mode="normal" in="SourceGraphic" in2="effect2_dropShadow_53313_27875" result="shape"/>
</filter>
<clipPath id="clip0_53313_27875">
<rect x="193" width="140" height="114" rx="12" fill="white"/>
</clipPath>
<clipPath id="clip1_53313_27875">
<rect width="160" height="114" rx="12" fill="white"/>
</clipPath>
<clipPath id="clip2_53313_27875">
<rect x="213" y="42" width="100" height="44" rx="12" fill="white"/>
</clipPath>
<clipPath id="clip3_53313_27875">
<rect x="96" y="43" width="44" height="44" rx="12" fill="white"/>
</clipPath>
<clipPath id="clip4_53313_27875">
<rect x="19" y="43" width="44" height="44" rx="12" fill="white"/>
</clipPath>
</defs>
</svg>
